<svg width="72" height="73" viewBox="0 0 72 73" fill="none" xmlns="http://www.w3.org/2000/svg">
<path d="M0.399963 36.8C0.299963 36.7 0.199951 36.6 0.199951 36.4C0.199951 36.3 0.199927 36.2 0.299927 36.1C0.299927 36 0.399939 36 0.499939 35.9C0.599939 35.9 0.699927 35.8 0.799927 35.9C0.899927 35.9 0.999915 36 1.09991 36C1.19991 36.1 1.19995 36.2 1.19995 36.2C1.19995 36.3 1.19995 36.4 1.19995 36.5C1.19995 36.6 1.09994 36.7 0.999939 36.7C0.899939 36.7 0.799951 36.8 0.699951 36.8C0.599951 36.9 0.399963 36.9 0.399963 36.8Z" fill="#0F0F0F"/>
<path d="M0.799927 39.8C0.699927 39.8 0.599939 39.7 0.499939 39.7C0.399939 39.6 0.399927 39.5 0.299927 39.4C0.299927 39.3 0.299963 39.2 0.399963 39.1C0.399963 39 0.499915 38.9 0.599915 38.9C0.699915 38.9 0.799963 38.8 0.899963 38.9C0.999963 38.9 1.09995 38.9 1.19995 39C1.29995 39.1 1.29996 39.2 1.39996 39.2C1.39996 39.3 1.39996 39.4 1.39996 39.5C1.39996 39.6 1.29995 39.7 1.19995 39.7C0.999951 39.7 0.899927 39.8 0.799927 39.8Z" fill="#0F0F0F"/>
<path d="M0.399963 33.8C0.299963 33.7 0.299927 33.6 0.299927 33.5C0.299927 33.4 0.399939 33.3 0.499939 33.2C0.599939 33.1 0.699927 33.1 0.799927 33.1C0.899927 33.1 0.999915 33.2 1.09991 33.2C1.19991 33.3 1.19995 33.4 1.19995 33.6C1.19995 33.7 1.09991 33.8 1.09991 33.9C0.999915 34 0.899927 34 0.799927 34C0.599927 34 0.499963 33.9 0.399963 33.8Z" fill="#0F0F0F"/>
<path d="M1.49994 42.4C1.39994 42.5 1.29995 42.5999 1.19995 42.5999H1.09991C0.999915 42.5999 0.899927 42.6 0.799927 42.5C0.699927 42.4 0.699951 42.3 0.699951 42.2C0.699951 42.1 0.699927 42 0.799927 41.9C0.899927 41.8 0.999915 41.7 1.09991 41.7C1.19991 41.7 1.19993 41.7 1.29993 41.7C1.39993 41.7 1.39994 41.6999 1.49994 41.7999C1.59994 41.7999 1.59991 41.9 1.59991 41.9C1.59991 42 1.69995 41.9999 1.69995 42.0999C1.59995 42.1999 1.59994 42.3 1.49994 42.4Z" fill="#0F0F0F"/>
<path d="M0.799927 30.9C0.699927 30.8 0.699951 30.7 0.699951 30.5C0.699951 30.4 0.799963 30.3 0.899963 30.2C0.999963 30.1 1.09993 30.1 1.29993 30.1C1.39993 30.1 1.49991 30.2 1.59991 30.3C1.69991 30.4 1.69995 30.5 1.69995 30.7C1.69995 30.9 1.59994 30.9 1.49994 31C1.39994 31.1 1.29995 31.1 1.19995 31.1H1.09991C0.999915 31 0.899927 31 0.799927 30.9Z" fill="#0F0F0F"/>
<path d="M2.19995 45.2C2.19995 45.3 2.09991 45.3 2.09991 45.3C1.99991 45.3 1.99996 45.4 1.89996 45.4H1.79993C1.69993 45.4 1.59994 45.4 1.49994 45.3C1.39994 45.2 1.39993 45.1 1.29993 45C1.29993 44.9 1.29996 44.7 1.39996 44.6C1.49996 44.5 1.59995 44.4 1.69995 44.4C1.79995 44.4 1.79996 44.4 1.89996 44.4C1.99996 44.4 1.99991 44.4 2.09991 44.5C2.19991 44.5 2.19995 44.6 2.19995 44.6C2.19995 44.6 2.29993 44.7 2.29993 44.8C2.29993 44.9 2.29993 44.9 2.29993 45C2.19993 45.1 2.19995 45.2 2.19995 45.2Z" fill="#0F0F0F"/>
<path d="M1.39996 28C1.29996 27.9 1.29993 27.7999 1.29993 27.5999C1.29993 27.4999 1.29996 27.5 1.39996 27.4C1.39996 27.4 1.49991 27.2999 1.59991 27.2999C1.59991 27.2999 1.69993 27.2 1.79993 27.2C1.89993 27.2 1.89994 27.2 1.99994 27.2C2.09994 27.2 2.09995 27.1999 2.19995 27.2999C2.29995 27.2999 2.29993 27.4 2.29993 27.4C2.29993 27.5 2.39996 27.4999 2.39996 27.5999C2.39996 27.6999 2.39996 27.6999 2.39996 27.7999C2.39996 27.8999 2.29995 27.9999 2.19995 28.0999C2.09995 28.1999 1.99996 28.2 1.89996 28.2H1.79993C1.49993 28.2 1.39996 28.1 1.39996 28Z" fill="#0F0F0F"/>
<path d="M3 47.6C3 47.7 3 47.7 3 47.8C3 47.9 3 47.9 3 48C3 48.1 2.90002 48.1 2.90002 48.1C2.80002 48.1 2.80001 48.2 2.70001 48.2C2.70001 48.2 2.6 48.2 2.5 48.2C2.4 48.2 2.30001 48.2 2.20001 48.1C2.10001 48 2 47.9 2 47.8C2 47.7 1.99998 47.6 2.09998 47.5C2.19998 47.4 2.30002 47.3 2.40002 47.3C2.50002 47.3 2.49998 47.3 2.59998 47.3C2.69998 47.3 2.69999 47.3 2.79999 47.3C2.89999 47.3 2.9 47.4 3 47.4C3 47.5 3 47.5 3 47.6Z" fill="#0F0F0F"/>
<path d="M2.99993 24.7C3.09993 24.8 3.0999 24.9 3.0999 25C3.0999 25.1 2.99995 25.2 2.89995 25.3C2.79995 25.4 2.6999 25.4 2.5999 25.4C2.4999 25.4 2.49995 25.4 2.39995 25.4C2.29995 25.4 2.1999 25.3 2.0999 25.2C1.9999 25.1 1.9999 25 2.0999 24.8C2.0999 24.7 2.09994 24.7 2.19994 24.6C2.19994 24.6 2.29995 24.5 2.39995 24.5C2.39995 24.5 2.4999 24.5 2.5999 24.5C2.6999 24.5 2.69991 24.5 2.79991 24.5C2.89991 24.5 2.99993 24.6 2.99993 24.7Z" fill="#0F0F0F"/>
<path d="M4 50.2C4 50.3 4 50.4 4 50.6C3.9 50.7 3.90001 50.8 3.70001 50.9C3.60001 50.9 3.6 50.9 3.5 50.9C3.4 50.9 3.30001 50.9 3.20001 50.8C3.10001 50.8 3.1 50.7 3 50.6C3 50.5 3 50.5 3 50.4C3 50.3 3 50.3 3 50.2C3 50.1 3.09998 50.1 3.09998 50C3.09998 50 3.19999 49.9 3.29999 49.9C3.29999 49.9 3.4 49.9 3.5 49.9C3.6 49.9 3.60001 49.9 3.70001 49.9C3.80001 49.9 3.80002 50 3.90002 50C4.00002 50.1 4 50.2 4 50.2Z" fill="#0F0F0F"/>
<path d="M4.09985 22C4.09985 22.1 4.09985 22.3 4.09985 22.4C4.09985 22.5 3.9999 22.6 3.8999 22.6C3.7999 22.7 3.69985 22.7 3.59985 22.7C3.49985 22.7 3.4999 22.7 3.3999 22.7C3.2999 22.7 3.19985 22.6 3.09985 22.4C3.09985 22.3 3.09985 22.1 3.09985 22C3.19985 21.9 3.2999 21.8 3.3999 21.7C3.4999 21.6 3.69987 21.7 3.79987 21.7C3.99987 21.8 4.09985 21.9 4.09985 22Z" fill="#0F0F0F"/>
<path d="M5.29991 52.8C5.39991 52.9 5.39991 53 5.29991 53.2C5.29991 53.3 5.1999 53.4 5.0999 53.5C4.9999 53.5 4.99995 53.6 4.89995 53.6C4.79995 53.6 4.69994 53.6 4.69994 53.5C4.59994 53.5 4.59993 53.4 4.49993 53.3C4.39993 53.2 4.39993 53.1 4.49993 52.9C4.49993 52.8 4.59994 52.7 4.69994 52.6C4.79994 52.5 4.8999 52.5 5.0999 52.6C5.0999 52.6 5.19991 52.7 5.29991 52.8Z" fill="#0F0F0F"/>
<path d="M5.40002 19.5C5.40002 19.6 5.40002 19.6 5.40002 19.7C5.40002 19.8 5.39999 19.8 5.29999 19.9C5.29999 20 5.19998 20 5.09998 20.1C4.99998 20.1 4.90002 20.2 4.90002 20.2C4.80002 20.2 4.70001 20.2 4.70001 20.1C4.60001 20 4.5 19.8999 4.5 19.7999C4.5 19.6999 4.5 19.5 4.5 19.4C4.6 19.3 4.69999 19.2 4.79999 19.2C4.89999 19.2 5.10001 19.2 5.20001 19.2C5.30001 19.2 5.30002 19.2999 5.40002 19.2999C5.40002 19.3999 5.40002 19.4 5.40002 19.5Z" fill="#0F0F0F"/>
<path d="M6.69995 55.2C6.69995 55.3 6.79993 55.3 6.79993 55.4C6.79993 55.5 6.79993 55.5 6.79993 55.6C6.79993 55.7 6.79995 55.7 6.69995 55.8L6.59991 55.9C6.49991 56 6.39993 56 6.29993 56C6.19993 56 6.09994 56 5.99994 55.9C5.89994 55.8 5.89993 55.7 5.79993 55.7C5.79993 55.6 5.79993 55.5 5.79993 55.4C5.79993 55.3 5.89994 55.2 5.99994 55.2C6.09994 55.2 6.09995 55.1 6.19995 55.1C6.29995 55.1 6.29996 55.1 6.39996 55.1C6.49996 55.1 6.49991 55.1 6.59991 55.2C6.59991 55.1 6.69995 55.2 6.69995 55.2Z" fill="#0F0F0F"/>
<path d="M6.8999 17C6.8999 17.1 6.8999 17.1 6.8999 17.2C6.8999 17.3 6.89987 17.3 6.79987 17.4C6.79987 17.5 6.69985 17.5 6.59985 17.6C6.49985 17.6 6.3999 17.7 6.3999 17.7C6.2999 17.7 6.19985 17.7 6.09985 17.6C5.99985 17.6 5.99988 17.5 5.99988 17.5C5.99988 17.5 5.8999 17.3999 5.8999 17.2999C5.8999 17.1999 5.8999 17.2 5.8999 17.1C5.8999 17 5.89988 17 5.99988 16.9C5.99988 16.8 6.09985 16.7999 6.09985 16.7999C6.09985 16.7999 6.19987 16.7 6.29987 16.7C6.39987 16.7 6.39988 16.7 6.49988 16.7C6.59988 16.7 6.59989 16.6999 6.69989 16.7999C6.79989 16.7999 6.79987 16.9 6.79987 16.9C6.89987 16.9 6.8999 16.9 6.8999 17Z" fill="#0F0F0F"/>
<path d="M8.3999 57.7C8.3999 57.8 8.3999 57.8 8.3999 57.9C8.3999 58 8.39987 58 8.29987 58.1C8.29987 58.2 8.19989 58.2 8.19989 58.2C8.09989 58.3 7.9999 58.3 7.8999 58.3C7.7999 58.3 7.79989 58.3 7.69989 58.2C7.59989 58.2 7.59988 58.1 7.49988 58.1C7.39988 58 7.3999 57.9 7.3999 57.7C7.3999 57.5 7.49985 57.5 7.59985 57.4C7.59985 57.4 7.69987 57.3 7.79987 57.3C7.89987 57.3 7.89988 57.3 7.99988 57.3C8.09988 57.3 8.09989 57.3 8.19989 57.4C8.29989 57.4 8.2999 57.5 8.3999 57.5C8.4999 57.5 8.3999 57.7 8.3999 57.7Z" fill="#0F0F0F"/>
<path d="M8.3999 14.2999C8.4999 14.3999 8.59985 14.5 8.59985 14.6C8.59985 14.7 8.59988 14.9 8.49988 15C8.49988 15.1 8.39987 15.1 8.29987 15.1C8.19987 15.1 8.19985 15.1 8.09985 15.1C7.99985 15.1 7.89987 15.1 7.79987 15C7.69987 14.9 7.59985 14.8 7.59985 14.7C7.59985 14.6 7.59989 14.5 7.69989 14.4C7.79989 14.3 7.89988 14.2 7.99988 14.2C8.19988 14.2 8.2999 14.2999 8.3999 14.2999Z" fill="#0F0F0F"/>
<path d="M10.2 59.9C10.2 60 10.2 60 10.2 60.1C10.2 60.2 10.2 60.2 10.2 60.3C10.2 60.4 10.0999 60.4 10.0999 60.5C9.99991 60.6 9.89993 60.6 9.79993 60.6C9.69993 60.6 9.59994 60.6 9.49994 60.5C9.39994 60.4 9.29993 60.4 9.29993 60.3C9.29993 60.2 9.29993 60.1 9.29993 60C9.29993 59.9 9.39994 59.8 9.49994 59.8C9.59994 59.8 9.59995 59.7 9.69995 59.7C9.79995 59.7 9.79996 59.7 9.89996 59.7C9.99996 59.7 9.99991 59.7 10.0999 59.7C10.1999 59.7 10.1999 59.8 10.2999 59.8C10.1999 59.8 10.2 59.8 10.2 59.9Z" fill="#0F0F0F"/>
<path d="M9.69989 12.9C9.59989 12.8 9.59985 12.7 9.59985 12.6C9.59985 12.5 9.59989 12.3 9.69989 12.2C9.69989 12.1 9.7999 12.1 9.8999 12.1C9.9999 12.1 10.0999 12.1 10.0999 12.1C10.1999 12.1 10.2999 12.1 10.2999 12.2C10.3999 12.2 10.3999 12.3 10.4999 12.4C10.4999 12.5 10.5999 12.5 10.4999 12.6C10.3999 12.7 10.4999 12.8 10.3999 12.8C10.3999 12.9 10.2999 12.9 10.1999 13C10.0999 13 9.99988 13.1 9.99988 13.1C9.89988 13 9.79989 12.9 9.69989 12.9Z" fill="#0F0F0F"/>
<path d="M12.2 61.8C12.3 61.9 12.2999 62 12.2999 62.1C12.2999 62.2 12.1999 62.3 12.0999 62.4C11.9999 62.5 11.8999 62.5 11.7999 62.5C11.6999 62.5 11.5999 62.5 11.4999 62.4C11.3999 62.4 11.3999 62.3 11.2999 62.2C11.2999 62.1 11.2999 62 11.2999 61.9C11.2999 61.8 11.3999 61.7 11.4999 61.7C11.5999 61.6 11.6999 61.6 11.7999 61.6C11.9999 61.7 12.1 61.7 12.2 61.8Z" fill="#0F0F0F"/>
<path d="M11.5999 10.6C11.5999 10.5 11.4999 10.4 11.5999 10.3C11.5999 10.2 11.6999 10.1 11.6999 10.1C11.7999 10 11.8999 10 11.9999 10C12.0999 10 12.1999 10.1 12.2999 10.2C12.3999 10.3 12.3999 10.4 12.3999 10.5C12.3999 10.6 12.2999 10.7 12.2999 10.8C12.1999 10.9 12.0999 10.9 11.9999 10.9C11.8999 10.9 11.7999 10.9 11.6999 10.8C11.6999 10.8 11.6999 10.7 11.5999 10.6Z" fill="#0F0F0F"/>
<path d="M14.2 63.8C14.3 63.9 14.2999 64 14.2999 64.1C14.2999 64.2 14.3 64.3 14.2 64.4C14.2 64.4 14.0999 64.5 13.9999 64.5C13.8999 64.5 13.8999 64.5 13.7999 64.6C13.6999 64.6 13.6999 64.6 13.5999 64.6C13.4999 64.6 13.5 64.6 13.4 64.5L13.2999 64.4C13.2999 64.3 13.3 64.3 13.2 64.2C13.2 64.1 13.2 64.1 13.2 64C13.2 63.9 13.1999 63.9 13.2999 63.8C13.3999 63.7 13.4999 63.6 13.5999 63.6C13.6999 63.6 13.8 63.6 13.9 63.6C14.1 63.7 14.1 63.7 14.2 63.8Z" fill="#0F0F0F"/>
<path d="M13.8999 8.69998C13.8999 8.59998 13.8999 8.49997 13.8999 8.39997C13.8999 8.29997 13.9999 8.19998 14.0999 8.19998C14.0999 8.19998 14.1999 8.09998 14.2999 8.09998C14.3999 8.09998 14.3999 8.09998 14.4999 8.09998C14.5999 8.09998 14.5999 8.09998 14.6999 8.19998C14.7999 8.19998 14.7999 8.29998 14.8999 8.29998C14.8999 8.29998 14.9999 8.39998 14.9999 8.49998C14.9999 8.59998 14.9999 8.59998 14.9999 8.69998C14.9999 8.79998 14.9999 8.79997 14.8999 8.89997L14.7999 8.99998C14.6999 9.09998 14.5999 9.09998 14.4999 9.09998C14.3999 9.09998 14.2999 9.09998 14.1999 8.99998C13.9999 8.89998 13.8999 8.79998 13.8999 8.69998Z" fill="#0F0F0F"/>
<path d="M16.5999 65.7C16.5999 65.8 16.5999 65.9 16.5999 65.9C16.5999 66 16.5999 66.1 16.4999 66.1C16.3999 66.2 16.3999 66.2 16.2999 66.2C16.1999 66.2 16.0999 66.2 16.0999 66.2C15.9999 66.2 16 66.2 15.9 66.1C15.8 66.1 15.8 66 15.7 65.9C15.7 65.8 15.7 65.7 15.7 65.6C15.7 65.5 15.7999 65.4 15.7999 65.4C15.8999 65.3 15.9999 65.3 16.0999 65.3C16.1999 65.3 16.2999 65.3 16.2999 65.3C16.3999 65.3 16.4999 65.4 16.4999 65.4C16.4999 65.5 16.5999 65.6 16.5999 65.7Z" fill="#0F0F0F"/>
<path d="M16.2999 7.09993C16.1999 6.99993 16.2 6.89993 16.2 6.69993C16.2 6.59993 16.3 6.49993 16.4 6.39993C16.4 6.39993 16.4999 6.29993 16.5999 6.29993C16.6999 6.29993 16.6999 6.29993 16.7999 6.29993C16.8999 6.29993 16.8999 6.29993 16.9999 6.39993C17.0999 6.39993 17.0999 6.49993 17.0999 6.49993C17.0999 6.59993 17.2 6.59993 17.2 6.69993C17.2 6.79993 17.2 6.79993 17.2 6.89993C17.2 6.99993 17.1999 6.99993 17.0999 7.09993L16.9999 7.19993C16.8999 7.29993 16.8 7.29993 16.7 7.29993C16.6 7.29993 16.4999 7.29993 16.4999 7.19993C16.3999 7.29993 16.2999 7.19993 16.2999 7.09993Z" fill="#0F0F0F"/>
<path d="M19.0999 67.2C19.0999 67.3 19.0999 67.4 19.0999 67.6C19.0999 67.7 18.9999 67.7 18.9999 67.7C18.8999 67.7 18.8999 67.8 18.7999 67.8C18.6999 67.8 18.6999 67.8 18.5999 67.8C18.4999 67.8 18.5 67.8 18.4 67.7C18.3 67.6 18.2 67.5 18.2 67.4C18.2 67.3 18.1999 67.1 18.2999 67C18.2999 66.9 18.4 66.9 18.4 66.8C18.5 66.8 18.4999 66.7 18.5999 66.7C18.6999 66.7 18.8 66.7 18.9 66.8C18.9 67 18.9999 67.1 19.0999 67.2Z" fill="#0F0F0F"/>
<path d="M18.7999 5.59995C18.6999 5.49995 18.6999 5.39995 18.7999 5.19995C18.7999 5.09995 18.8999 4.99995 18.9999 4.89995C19.0999 4.79995 19.1999 4.79995 19.3999 4.89995C19.4999 4.89995 19.5999 4.99995 19.6999 5.09995C19.7999 5.19995 19.7999 5.29995 19.6999 5.49995C19.6999 5.59995 19.5999 5.69995 19.4999 5.79995C19.3999 5.89995 19.3999 5.89995 19.2999 5.89995C19.1999 5.89995 19.0999 5.89995 18.9999 5.79995C18.8999 5.69995 18.7999 5.69995 18.7999 5.59995Z" fill="#0F0F0F"/>
<path d="M21.5999 68.4C21.6999 68.5 21.7 68.5999 21.7 68.6999C21.7 68.7999 21.6999 68.8999 21.5999 68.9999C21.5999 69.0999 21.5 69.0999 21.4 69.1999C21.3 69.1999 21.1999 69.1999 21.0999 69.1999C20.9999 69.1999 20.9 69.0999 20.9 69.0999C20.8 68.9999 20.7999 68.9 20.7999 68.9C20.7999 68.8 20.7999 68.6999 20.7999 68.5999C20.8999 68.4999 20.9999 68.4 21.0999 68.4C21.1999 68.3 21.3999 68.4 21.4999 68.4C21.4999 68.3 21.4999 68.3 21.5999 68.4Z" fill="#0F0F0F"/>
<path d="M21.4 4.29999C21.3 4.19999 21.3 3.99999 21.4 3.89999C21.5 3.79999 21.4999 3.69999 21.6999 3.59999C21.8999 3.49999 21.8999 3.59999 22.0999 3.59999C22.1999 3.59999 22.3 3.79999 22.4 3.89999C22.4 3.99999 22.5 4.19999 22.4 4.29999C22.3 4.39999 22.2999 4.49999 22.0999 4.59999C21.9999 4.59999 22 4.59999 21.9 4.59999C21.8 4.59999 21.6999 4.59999 21.5999 4.49999C21.4999 4.39999 21.4 4.39999 21.4 4.29999Z" fill="#0F0F0F"/>
<path d="M24.2999 69.6C24.3999 69.7 24.3999 69.8 24.2999 70C24.2999 70.1 24.1999 70.2 23.9999 70.3C23.8999 70.4 23.7999 70.4 23.5999 70.3C23.4999 70.3 23.5 70.3 23.4 70.2C23.4 70.2 23.2999 70.1 23.2999 70C23.2999 70 23.2999 69.9 23.2999 69.8C23.2999 69.7 23.2999 69.7 23.2999 69.6C23.2999 69.5 23.3999 69.4 23.4999 69.4C23.5999 69.3 23.7 69.3 23.7 69.3C23.8 69.3 23.9 69.3 23.9 69.3C24.2 69.3 24.2999 69.4 24.2999 69.6Z" fill="#0F0F0F"/>
<path d="M24.0999 3.2C24.0999 3.1 24.0999 3.1 24.0999 3C24.0999 2.9 24.0999 2.9 24.0999 2.8C24.0999 2.7 24.1999 2.7 24.1999 2.6C24.2999 2.6 24.2999 2.5 24.3999 2.5C24.4999 2.5 24.5999 2.5 24.7999 2.5C24.8999 2.5 24.9999 2.6 24.9999 2.8C24.9999 2.9 24.9999 2.9 24.9999 3C24.9999 3.1 24.9999 3.1 24.9999 3.2C24.9999 3.2 24.8999 3.3 24.8999 3.4C24.8999 3.4 24.7999 3.5 24.6999 3.5C24.5999 3.5 24.5999 3.5 24.4999 3.5C24.3999 3.5 24.2999 3.5 24.1999 3.4C24.1999 3.4 24.0999 3.3 24.0999 3.2Z" fill="#0F0F0F"/>
<path d="M27.0999 70.4C27.0999 70.5 27.2 70.5 27.2 70.6C27.2 70.7 27.2 70.7 27.2 70.8C27.2 70.9 27.1999 70.9 27.0999 71L26.9999 71.1C26.8999 71.1 26.8999 71.2 26.7999 71.2C26.6999 71.2 26.6999 71.2 26.5999 71.2C26.4999 71.2 26.3999 71.1 26.2999 71C26.1999 70.9 26.2 70.8 26.2 70.6C26.2 70.5 26.3 70.4 26.4 70.4C26.5 70.3 26.5999 70.3 26.5999 70.3C26.6999 70.3 26.6999 70.3 26.7999 70.3C26.8999 70.3 26.8999 70.3 26.9999 70.4C26.9999 70.3 27.0999 70.3 27.0999 70.4Z" fill="#0F0F0F"/>
<path d="M26.9999 2.59993C26.8999 2.49993 26.7999 2.39993 26.7999 2.29993C26.7999 2.19993 26.8 2.09993 26.9 1.99993C27 1.89993 27.1 1.79993 27.2 1.79993C27.3 1.79993 27.3999 1.79993 27.4999 1.89993C27.5999 1.99993 27.7 2.09993 27.7 2.19993C27.7 2.29993 27.6999 2.39993 27.5999 2.49993C27.4999 2.59993 27.3999 2.69993 27.2999 2.69993H27.2C27.2 2.69993 27.0999 2.59993 26.9999 2.59993Z" fill="#0F0F0F"/>
<path d="M29.8999 71C29.8999 71 29.9999 71.1 29.9999 71.2C29.9999 71.3 29.9999 71.3 29.9999 71.4C29.9999 71.5 29.8999 71.6 29.8999 71.6C29.7999 71.7 29.7999 71.7 29.6999 71.7C29.5999 71.7 29.4999 71.7 29.3999 71.7C29.2999 71.7 29.1999 71.6 29.1999 71.6C29.0999 71.5 29.0999 71.4 29.0999 71.4C29.0999 71.3 29.0999 71.2 29.0999 71.1C29.0999 71 29.1999 70.9 29.1999 70.9C29.2999 70.9 29.3999 70.8 29.3999 70.8C29.4999 70.8 29.4999 70.8 29.5999 70.8C29.6999 70.8 29.6999 70.8 29.7999 70.9L29.8999 71Z" fill="#0F0F0F"/>
<path d="M29.7999 1.89998C29.6999 1.79998 29.6999 1.69998 29.5999 1.59998C29.5999 1.49998 29.5999 1.39998 29.6999 1.29998C29.7999 1.19998 29.8999 1.09998 29.9999 1.09998C30.0999 1.09998 30.2999 1.09998 30.3999 1.19998C30.4999 1.29998 30.5999 1.39998 30.5999 1.49998C30.5999 1.59998 30.5999 1.59998 30.5999 1.69998C30.5999 1.79998 30.5999 1.79998 30.4999 1.89998C30.4999 1.99998 30.3999 1.99998 30.3999 1.99998C30.2999 1.99998 30.2999 2.09998 30.1999 2.09998H30.0999C30.0999 2.09998 29.8999 1.99998 29.7999 1.89998Z" fill="#0F0F0F"/>
<path d="M32.8 71.4C32.9 71.5 32.9 71.6 32.9 71.7C32.9 71.8 32.8 71.9 32.7 72C32.6 72.1 32.5 72.1 32.4 72.1C32.3 72.1 32.2 72 32.1 72C32 71.9 32 71.8 32 71.7C32 71.6 32 71.5 32.1 71.4C32.2 71.3 32.3 71.2 32.4 71.2H32.5C32.6 71.2 32.7 71.3 32.8 71.4Z" fill="#0F0F0F"/>
<path d="M32.6999 1.59995C32.5999 1.49995 32.5999 1.39995 32.5999 1.19995C32.5999 1.09995 32.6999 0.999951 32.7999 0.899951C32.8999 0.799951 32.9999 0.699951 33.0999 0.699951C33.1999 0.699951 33.2999 0.799951 33.3999 0.899951C33.4999 0.999951 33.5999 1.09995 33.5999 1.19995C33.5999 1.29995 33.5999 1.49995 33.4999 1.59995C33.3999 1.69995 33.2999 1.69995 33.1999 1.69995H33.0999C32.8999 1.69995 32.7999 1.69995 32.6999 1.59995Z" fill="#0F0F0F"/>
<path d="M35.5999 71.5C35.6999 71.6 35.7 71.7 35.7 71.9C35.7 72 35.5999 72.1 35.4999 72.2C35.3999 72.3 35.3 72.3 35.2 72.3C35.1 72.3 34.8999 72.3 34.7999 72.2C34.6999 72.1 34.7 72 34.7 71.9C34.7 71.8 34.6999 71.7 34.7999 71.5C34.8999 71.4 34.9999 71.3 35.0999 71.3H35.2C35.4 71.4 35.5999 71.4 35.5999 71.5Z" fill="#0F0F0F"/>
<path d="M35.5999 1.49995C35.4999 1.39995 35.3999 1.29995 35.3999 1.19995C35.3999 1.09995 35.3999 0.999951 35.4999 0.899951C35.5999 0.799951 35.5999 0.799951 35.6999 0.699951C35.7999 0.699951 35.8999 0.699951 35.9999 0.699951C36.0999 0.699951 36.1999 0.799952 36.1999 0.799952C36.2999 0.899952 36.2999 0.999951 36.2999 1.09995C36.2999 1.19995 36.2999 1.29995 36.2999 1.39995C36.2999 1.49995 36.1999 1.59995 36.0999 1.59995C35.9999 1.69995 35.8999 1.69995 35.7999 1.69995C35.8999 1.59995 35.6999 1.59995 35.5999 1.49995Z" fill="#0F0F0F"/>
<path d="M38.4999 71.4C38.5999 71.5 38.6 71.6 38.7 71.7C38.7 71.8 38.6999 71.9 38.5999 72C38.4999 72.1 38.3999 72.2 38.2999 72.2C38.1999 72.2 38.0999 72.2 37.9999 72.1C37.8999 72 37.7999 71.9 37.7999 71.8C37.7999 71.7 37.8 71.6 37.9 71.5C38 71.4 38.1 71.3 38.2 71.3C38.3 71.3 38.3999 71.3 38.4999 71.4Z" fill="#0F0F0F"/>
<path d="M38.6 1.60002C38.5 1.50002 38.5 1.40002 38.5 1.30002C38.5 1.20002 38.6 1.10002 38.6 1.00002C38.7 0.900024 38.8 0.900024 38.9 0.900024C39 0.900024 39.1 1.00002 39.2 1.00002C39.3 1.10002 39.3 1.20002 39.3 1.30002C39.3 1.40002 39.2 1.50002 39.2 1.60002C39.1 1.70002 39 1.70002 38.9 1.70002C38.7 1.70002 38.6 1.70002 38.6 1.60002Z" fill="#0F0F0F"/>
<path d="M41.5999 71.4C41.5999 71.5 41.5999 71.6 41.5999 71.7C41.5999 71.8 41.4999 71.9 41.3999 71.9C41.2999 71.9 41.1999 72 41.0999 72C40.9999 72 40.8999 72 40.7999 71.9C40.6999 71.8 40.6999 71.8 40.5999 71.7C40.5999 71.6 40.5999 71.5 40.5999 71.4C40.5999 71.3 40.6999 71.2 40.7999 71.2C40.8999 71.1 40.9999 71.1 41.0999 71.1C41.1999 71.1 41.3999 71.1 41.4999 71.2C41.4999 71.1 41.5999 71.3 41.5999 71.4Z" fill="#0F0F0F"/>
<path d="M41.4 1.89998C41.3 1.79998 41.2999 1.69998 41.2999 1.49998C41.2999 1.39998 41.3999 1.29998 41.4999 1.19998C41.5999 1.09998 41.6999 1.09998 41.7999 1.09998C41.8999 1.09998 41.9999 1.19998 42.0999 1.29998C42.1999 1.39998 42.2 1.49998 42.2 1.69998C42.2 1.89998 42.0999 1.89998 41.9999 1.99998C41.8999 2.09998 41.7999 2.09998 41.5999 2.09998C41.5999 2.09998 41.5999 2.09998 41.4999 2.09998C41.5999 2.09998 41.5 1.99998 41.4 1.89998Z" fill="#0F0F0F"/>
<path d="M44.3 70.5C44.4 70.6 44.5 70.7 44.5 70.8C44.5 70.9 44.5 71.1 44.4 71.2C44.3 71.3 44.2 71.4 44.1 71.4C44 71.4 43.8 71.4 43.7 71.3C43.6 71.2 43.5 71.1 43.5 71C43.5 70.9 43.5 70.7 43.6 70.6C43.7 70.5 43.8 70.4 43.9 70.4C44.1 70.4 44.2 70.5 44.3 70.5Z" fill="#0F0F0F"/>
<path d="M44.1999 2.39998C44.0999 2.29998 44.0999 2.19998 44.0999 1.99998C44.0999 1.89998 44.1999 1.79998 44.2999 1.69998C44.3999 1.59998 44.4999 1.59998 44.6999 1.59998C44.7999 1.59998 44.8999 1.69998 44.9999 1.79998C45.0999 1.89998 45.0999 1.99998 45.0999 2.09998C45.0999 2.19998 44.9999 2.29998 44.8999 2.39998C44.7999 2.49998 44.6999 2.49998 44.5999 2.49998H44.4999C44.3999 2.59998 44.2999 2.59998 44.1999 2.39998Z" fill="#0F0F0F"/>
<path d="M47.2999 70C47.2999 70.1 47.3 70.2 47.2 70.3C47.1 70.4 47 70.5 46.9 70.5C46.8 70.5 46.6999 70.5 46.4999 70.5C46.3999 70.5 46.2999 70.3 46.2999 70.2C46.2999 70.1 46.2999 70.1 46.2999 70C46.2999 69.9 46.3 69.9 46.4 69.8C46.5 69.7 46.4999 69.7 46.4999 69.7C46.5999 69.7 46.6 69.6 46.7 69.6H46.7999C46.8999 69.6 46.9999 69.6 47.0999 69.7C47.1999 69.8 47.1999 69.9 47.2999 70Z" fill="#0F0F0F"/>
<path d="M47 3.2C47 3.1 47 3 47 2.9C47 2.8 47.1 2.7 47.2 2.6C47.3 2.6 47.3 2.6 47.4 2.5C47.5 2.5 47.5 2.5 47.6 2.5C47.7 2.5 47.8 2.6 47.9 2.7C47.9 2.8 48 2.9 47.9 3.1C47.9 3.2 47.8 3.3 47.7 3.4C47.6 3.5 47.5 3.5 47.3 3.4C47.2 3.4 47.1 3.3 47 3.2Z" fill="#0F0F0F"/>
<path d="M49.9999 69C49.9999 69.1 49.9999 69.2 49.8999 69.3C49.7999 69.4 49.6999 69.5 49.5999 69.5C49.4999 69.5 49.3999 69.5 49.2999 69.5C49.1999 69.4 49.0999 69.4 49.0999 69.2C49.0999 69.1 49.0999 69 49.0999 68.8C49.1999 68.7 49.1999 68.6 49.2999 68.6H49.3999C49.4999 68.6 49.5999 68.6 49.6999 68.7C49.8999 68.8 49.9999 68.9 49.9999 69Z" fill="#0F0F0F"/>
<path d="M49.7 4.29998C49.7 4.19998 49.7 4.09997 49.7 3.89997C49.7 3.69997 49.8999 3.69998 49.9999 3.59998C50.0999 3.59998 50.2 3.59998 50.4 3.59998C50.5 3.69998 50.6 3.69997 50.7 3.89997C50.7 3.99997 50.7 4.19998 50.7 4.29998C50.7 4.39998 50.5999 4.49998 50.4999 4.49998C50.3999 4.49998 50.3 4.59998 50.2 4.59998C50.1 4.59998 50.0999 4.59998 49.9999 4.59998C49.8999 4.49998 49.8 4.39998 49.7 4.29998Z" fill="#0F0F0F"/>
<path d="M52.7 67.8C52.7 68.1 52.5 68.3 52.2 68.3C51.9 68.3 51.7 68.1 51.7 67.8C51.7 67.5 51.9 67.3 52.2 67.3C52.5 67.3 52.7 67.5 52.7 67.8Z" fill="#0F0F0F"/>
<path d="M52.2999 5.50002C52.2999 5.40002 52.2999 5.20003 52.2999 5.10003C52.3999 5.00003 52.4999 4.90002 52.5999 4.90002C52.6999 4.90002 52.7999 4.90002 52.9999 4.90002C53.0999 4.90002 53.1 5.00002 53.2 5.00002C53.2 5.00002 53.2999 5.10002 53.2999 5.20002C53.2999 5.30002 53.2999 5.30002 53.2999 5.40002C53.2999 5.50002 53.3 5.50003 53.2 5.60003C53.2 5.70003 53.0999 5.70002 52.9999 5.80002C52.8999 5.90003 52.7999 5.90002 52.7999 5.90002C52.6999 5.90002 52.5999 5.90003 52.5999 5.80002C52.3999 5.70002 52.3999 5.60002 52.2999 5.50002Z" fill="#0F0F0F"/>
<path d="M55.2 66C55.3 66.1 55.2999 66.2 55.2999 66.4C55.2999 66.5 55.1999 66.6 55.0999 66.7C54.9999 66.7 54.8999 66.8 54.7999 66.8C54.6999 66.8 54.5999 66.8 54.5999 66.7C54.4999 66.7 54.5 66.6 54.4 66.5C54.3 66.4 54.2999 66.3 54.2999 66.1C54.2999 66 54.3999 65.9 54.4999 65.8C54.4999 65.8 54.6 65.7 54.7 65.7C54.8 65.7 54.8 65.7 54.9 65.7C55 65.7 54.9999 65.7 55.0999 65.8C55.0999 65.9 55.2 66 55.2 66Z" fill="#0F0F0F"/>
<path d="M54.7999 7.1C54.7999 7 54.7999 6.9 54.7999 6.8C54.7999 6.7 54.9 6.6 54.9 6.6C55 6.5 55.0999 6.5 55.0999 6.5C55.1999 6.5 55.3 6.5 55.4 6.5C55.5 6.5 55.5999 6.6 55.5999 6.7C55.6999 6.8 55.7 6.9 55.7 7C55.7 7.1 55.6999 7.2 55.5999 7.3C55.4999 7.4 55.3999 7.5 55.2999 7.5C55.1999 7.5 55 7.5 54.9 7.4C54.9 7.2 54.8999 7.1 54.7999 7.1Z" fill="#0F0F0F"/>
<path d="M57.5999 52.5C57.8999 53.7 57.7999 54.6 57.3999 55C57.1999 55.2 56.7999 55.4 56.4999 55.5C56.1999 55.6 55.7999 55.5999 55.4999 55.5999C54.7999 55.4999 54.0999 55.2 53.5999 54.7C53.2999 54.5 53.0999 54.2 52.8999 53.9C52.6999 53.6 52.6999 53.2 52.5999 52.9C52.5999 52.5 52.7999 52.1 53.0999 51.7C53.1999 51.5 53.3999 51.3999 53.5999 51.2999C53.7999 51.1999 53.9999 51.2 54.1999 51.2C54.8999 51.2 55.4999 51.3 56.1999 51.4C56.4999 51.4 56.7999 51.5999 57.0999 51.7999C57.2999 51.8999 57.4999 52.2 57.5999 52.5Z" fill="#0F0F0F"/>
<path d="M57.7 64.5C57.7 64.6 57.7 64.6 57.7 64.7C57.7 64.8 57.6999 64.8 57.5999 64.9C57.5999 65 57.4999 65 57.4999 65C57.3999 65.1 57.3 65.1 57.2 65.1C57.1 65.1 56.9999 65.1 56.9999 65C56.8999 65 56.8999 64.9 56.7999 64.9C56.6999 64.8 56.7 64.7 56.7 64.5C56.7 64.4 56.8 64.3 56.9 64.2C57 64.2 56.9999 64.1 57.0999 64.1C57.1999 64.1 57.1999 64.1 57.2999 64.1C57.3999 64.1 57.3999 64.1 57.4999 64.2C57.5999 64.2 57.5999 64.3 57.5999 64.3C57.5999 64.3 57.7 64.4 57.7 64.5Z" fill="#0F0F0F"/>
<path d="M57.1999 8.8C57.1999 8.8 57.0999 8.7 57.0999 8.6C57.0999 8.5 57.0999 8.5 57.0999 8.4C57.0999 8.3 57.1999 8.3 57.1999 8.2L57.2999 8.1C57.3999 8.1 57.3999 8 57.4999 8C57.5999 8 57.5999 8 57.6999 8C57.7999 8 57.7999 8 57.8999 8.1C57.9999 8.2 58.0999 8.3 58.0999 8.4C58.0999 8.5 58.0999 8.6 57.9999 8.8C57.9999 8.9 57.8999 8.9 57.7999 8.9C57.6999 8.9 57.6999 8.9 57.5999 8.9C57.4999 8.9 57.3999 8.9 57.2999 8.8C57.2999 8.9 57.2999 8.9 57.1999 8.8Z" fill="#0F0F0F"/>
<path d="M59.4999 39.8C59.3999 39.6 59.2999 39.4 58.9999 39.3C58.7999 39.2 58.5999 39.1 58.2999 39.1C57.5999 39 57.1999 38.8 57.2999 37.9C57.2999 36.8 57.0999 35.7 56.5999 34.8C56.0999 33.8 55.3999 33 54.4999 32.4C52.4999 31.1 50.1999 30.3 47.7999 30.3C45.9999 30.1 44.2 29.9 42.4 29.6C43.3 29.1 44.0999 28.7 44.7999 28.2C47.0999 26.9 49.0999 25.2 50.7999 23.2C51.5999 22.2 52.0999 21 52.2999 19.7C52.4999 18.4 52.2999 17.1 51.6999 15.9C50.3999 13.4 48.0999 12.8 45.5999 12.9C43.6999 12.9 41.7999 13.4 39.9999 14.2C35.8999 16.2 32.0999 18.6 28.6999 21.5C27.2999 22.6 25.9 23.8 24.4 25C24.6 24 24.8 23.2 24.9 22.3C25.4 19.7 25.0999 17 23.7999 14.6C23.4999 14.1 23.1999 13.6 22.6999 13.3C22.1999 12.9 21.6999 12.7 21.1999 12.6C20.9999 12.5 20.7999 12.6 20.5999 12.6C20.3999 12.7 20.1999 12.8 20.0999 13.1C19.8999 13.3 19.9 13.5 19.9 13.8C19.9 14 19.8999 14.3 20.0999 14.5C20.2999 14.8 20.6 15.1 20.9 15.4C21.4 15.8 21.7999 16.4 22.0999 17C22.3999 17.6 22.4999 18.3 22.4999 18.9C22.6999 22.5 21.2999 25.6 19.9999 28.8C19.8999 29 19.6999 29.2 19.4999 29.4C18.2999 30.6 16.9999 31.7 15.7999 33C13.6999 35.4 11.5999 37.7 10.4999 40.8C9.99993 42.3 9.89991 43.8 10.2999 45.3C10.6999 46.8 11.4999 48.2 12.5999 49.2C12.9999 49.5 13.4999 49.7 13.9999 49.7C14.4999 49.7 15 49.5 15.4 49.1C16.1 48.4 16.5999 47.5 16.9999 46.6C21.6999 36.8 27.9999 28 35.7999 20.4C37.9999 18.1 40.8999 16.6 43.9999 16C45.7999 15.7 47.8999 17.7 47.9999 19.3C48.0999 21.6 46.9 23.1 45.4 24.4C43.2 26.3 40.6 27.9 37.9 29C36.5 29.6 35.1999 30.4 33.9999 31.3C33.3999 31.8 32.8999 32.4 32.6999 33.2C32.4999 33.9 32.3999 34.7 32.5999 35.5C32.7999 36.2 33.0999 36.7 33.6999 37.1C34.1999 37.5 34.8999 37.7 35.4999 37.7C38.9999 37.9 42.5999 38 46.0999 38.3C47.5999 38.4 49.0999 38.4 50.1999 39.7C50.1999 39.8 50.0999 39.8 49.9999 39.9C49.8999 39.9 49.7999 40 49.7999 40C42.3999 41.3 35.2999 43.5 28.4 46.5C27 47.1 25.7999 48 24.6999 49.1C22.8999 51 22.7999 53.9 25.4999 55.4C28.4999 57.1 31.5999 56.8 34.7999 56.3C40.4999 55.4 45.4999 52.8 50.2999 49.5C52.7999 47.8 54.7999 45.5 56.2999 42.9C56.6999 42.2 57.0999 41.8 57.9999 41.9C58.2999 42 58.4999 42 58.7999 41.9C58.9999 41.8 59.2999 41.7 59.4999 41.4C59.5999 41.2 59.6999 41 59.7999 40.8C59.6999 40.2 59.5999 40 59.4999 39.8ZM50.9 42.9C50.5 44.2 49.6999 45.4 48.5999 46.2C44.2999 49.7 39.4999 52.4 34.0999 53.3C33.3999 53.4 32.7999 53.4 32.0999 53.5C31.3999 53.5 30.6 53.5 29.9 53.2C29.6 53.1 29.3999 53 29.1999 52.8C28.9999 52.6 28.7999 52.4 28.6999 52.1C28.5999 51.8 28.4999 51.5 28.5999 51.3C28.5999 51 28.6999 50.7 28.7999 50.5C29.0999 49.8 29.5999 49.2 30.2999 48.8C33.3999 46.8 36.7999 45.9 40.1999 44.8C43.3999 43.8 46.6999 42.9 50.0999 42.3C50.9999 41.9 51.1 42.2 50.9 42.9Z" fill="#0F0F0F"/>
<path d="M59.9 62.4C60 62.5 60 62.6 60 62.7C60 62.8 59.9 62.9 59.8 63C59.7 63.1 59.6 63.1 59.5 63.1C59.4 63.1 59.4 63.1 59.3 63C59.2 63 59.2 62.9 59.1 62.9C59 62.8 59 62.7 59 62.6C59 62.5 59.1 62.4 59.2 62.3C59.3 62.2 59.4 62.2 59.6 62.2C59.7 62.2 59.8 62.3 59.9 62.4Z" fill="#0F0F0F"/>
<path d="M60.1999 10.1C60.2999 10.2 60.2999 10.3 60.2999 10.3C60.2999 10.4 60.2999 10.5 60.2999 10.6C60.2999 10.7 60.1999 10.8 60.0999 10.8C59.9999 10.8 59.8999 10.9 59.7999 10.9C59.6999 10.9 59.5999 10.9 59.4999 10.8C59.4999 10.8 59.3999 10.7 59.3999 10.6C59.3999 10.5 59.3999 10.5 59.3999 10.4C59.3999 10.3 59.3999 10.3 59.3999 10.2C59.3999 10.1 59.4999 10.1 59.4999 10C59.4999 10 59.5999 9.90002 59.6999 9.90002C59.7999 9.90002 59.7999 9.90002 59.8999 9.90002C59.9999 9.90002 59.9999 9.90002 60.0999 9.90002C60.0999 10 60.1999 10 60.1999 10.1Z" fill="#0F0F0F"/>
<path d="M62.0999 60.4C62.0999 60.5 62.0999 60.5 62.0999 60.6C62.0999 60.7 62.0999 60.7 62.0999 60.8C62.0999 60.9 62.0999 60.9 61.9999 61C61.8999 61.1 61.7999 61.1 61.5999 61.1C61.4999 61.1 61.3999 61.1 61.2999 61C61.2999 61 61.2 60.9 61.2 60.8C61.2 60.7 61.2 60.7 61.2 60.6C61.2 60.5 61.2 60.5 61.2 60.4C61.2 60.3 61.2999 60.3 61.2999 60.2L61.4 60.1C61.5 60.1 61.4999 60.1 61.5999 60.1C61.6999 60.1 61.6999 60.1 61.7999 60.1C61.8999 60.1 61.8999 60.2 61.9999 60.2C61.9999 60.3 62.0999 60.4 62.0999 60.4Z" fill="#0F0F0F"/>
<path d="M62.3 12.2C62.4 12.3 62.4 12.4 62.4 12.5C62.4 12.6 62.3 12.7 62.3 12.8C62.2 12.9 62.1 12.9 62 12.9C61.9 12.9 61.8 12.9 61.7 12.8C61.6 12.8 61.6 12.7 61.5 12.6C61.5 12.5 61.4 12.4 61.5 12.3C61.5 12.2 61.6 12.1 61.6 12.1C61.7 12 61.8 12 61.9 12C62.1 12 62.2 12.1 62.3 12.2Z" fill="#0F0F0F"/>
<path d="M63.8999 58C63.9999 58.1 64.0999 58.2 64.0999 58.3C64.0999 58.4 64.0999 58.6 63.9999 58.7C63.9999 58.7 63.8999 58.8 63.7999 58.8C63.6999 58.8 63.6999 58.8 63.5999 58.8C63.4999 58.8 63.3999 58.8 63.2999 58.7C63.1999 58.6 63.0999 58.5 63.0999 58.4C63.0999 58.3 63.0999 58.1 63.1999 58C63.1999 58 63.2999 57.9 63.3999 57.9C63.4999 57.9 63.4999 57.9 63.5999 57.8C63.6999 57.8 63.6999 57.8 63.7999 57.8C63.7999 58 63.7999 58 63.8999 58Z" fill="#0F0F0F"/>
<path d="M64.2 14.3999C64.3 14.4999 64.2999 14.5999 64.2999 14.7999C64.2999 14.9999 64.1999 14.9999 64.0999 15.0999C63.9999 15.1999 63.8999 15.1999 63.7999 15.1999C63.6999 15.1999 63.5999 15.1999 63.5999 15.1999C63.4999 15.1999 63.5 15.0999 63.4 15.0999C63.3 14.9999 63.2999 14.8999 63.2999 14.6999C63.2999 14.5999 63.3999 14.4999 63.4999 14.3999C63.5999 14.2999 63.7 14.2999 63.9 14.2999C64 14.2999 64.1 14.2999 64.2 14.3999Z" fill="#0F0F0F"/>
<path d="M65.7999 55.9C65.7999 56 65.8 56.1 65.7 56.3C65.7 56.4 65.5999 56.4 65.4999 56.5C65.3999 56.5 65.3999 56.6 65.2999 56.6C65.1999 56.6 65.0999 56.6 64.9999 56.5L64.9 56.4C64.9 56.3 64.7999 56.3 64.7999 56.2C64.7999 56.1 64.7999 56.1 64.7999 56C64.7999 55.9 64.8 55.9 64.9 55.8C64.9 55.7 64.9999 55.7 64.9999 55.7C65.0999 55.7 65.1 55.6 65.2 55.6C65.3 55.6 65.3 55.6 65.4 55.6C65.5 55.6 65.4999 55.6 65.5999 55.7C65.6999 55.7 65.7999 55.8 65.7999 55.9Z" fill="#0F0F0F"/>
<path d="M65.9 16.8C65.9 16.9 66 16.9 66 17C66 17.1 66 17.1 66 17.2C66 17.3 66 17.3 65.9 17.4C65.9 17.5 65.8 17.5 65.8 17.5C65.7 17.5 65.6 17.6 65.5 17.6C65.4 17.6 65.3 17.6 65.3 17.5C65.2 17.5 65.2 17.4 65.1 17.3C65 17.2 65 17.1 65 16.9C65 16.8 65.1 16.7 65.2 16.6C65.2 16.6 65.3 16.5 65.4 16.5C65.5 16.5 65.5 16.5 65.6 16.5C65.7 16.5 65.7 16.5 65.8 16.6C65.9 16.7 65.9 16.8 65.9 16.8Z" fill="#0F0F0F"/>
<path d="M67.4 53.3C67.4 53.4 67.4 53.4 67.4 53.5C67.4 53.6 67.3999 53.6 67.2999 53.7C67.2999 53.8 67.2 53.8 67.2 53.9C67.2 53.9 67.0999 54 66.9999 54C66.8999 54 66.8999 54 66.7999 54C66.6999 54 66.6999 54 66.5999 53.9C66.4999 53.9 66.5 53.8 66.4 53.8C66.4 53.7 66.2999 53.7 66.2999 53.6C66.2999 53.5 66.2999 53.5 66.2999 53.4C66.2999 53.3 66.3 53.3 66.4 53.2C66.4 53.1 66.4999 53.1 66.4999 53.1C66.5999 53.1 66.6 53 66.7 53C66.8 53 66.8 53 66.9 53C67 53 66.9999 53 67.0999 53.1C67.1999 53.1 67.1999 53.2 67.2999 53.2C67.2999 53.2 67.3 53.3 67.4 53.3Z" fill="#0F0F0F"/>
<path d="M67.4999 19.4C67.5999 19.5 67.5999 19.6 67.4999 19.8C67.4999 19.9 67.3999 20 67.2999 20.1C67.1999 20.1 67.0999 20.2 67.0999 20.2C66.9999 20.2 66.8999 20.2 66.8999 20.1C66.7999 20.1 66.7999 20 66.6999 19.9C66.6999 19.8 66.5999 19.8 66.5999 19.7C66.5999 19.6 66.5999 19.6 66.5999 19.5C66.5999 19.4 66.6999 19.4 66.6999 19.3L66.7999 19.2C66.8999 19.1 66.9999 19.1 67.1999 19.2C67.2999 19.2 67.2999 19.2 67.3999 19.3C67.3999 19.3 67.3999 19.3 67.4999 19.4Z" fill="#0F0F0F"/>
<path d="M68.5999 50.6C68.5999 50.7 68.6999 50.8 68.5999 50.9C68.5999 51 68.4999 51.1 68.3999 51.2C68.2999 51.3 68.1999 51.3 68.0999 51.3C67.9999 51.3 67.9999 51.3 67.8999 51.3C67.7999 51.2 67.6999 51.1 67.5999 51C67.5999 50.9 67.5999 50.8 67.5999 50.6C67.6999 50.5 67.7999 50.4 67.8999 50.3C67.9999 50.3 68.1999 50.3 68.2999 50.3C68.4999 50.4 68.5999 50.5 68.5999 50.6Z" fill="#0F0F0F"/>
<path d="M68.7999 21.9999C68.8999 22.0999 68.8999 22.1999 68.7999 22.3999C68.6999 22.4999 68.6999 22.5999 68.4999 22.6999C68.3999 22.6999 68.3999 22.6999 68.2999 22.6999C68.1999 22.6999 68.0999 22.6999 67.9999 22.5999C67.8999 22.4999 67.7999 22.3999 67.7999 22.2999C67.7999 22.1999 67.7999 22.0999 67.7999 21.9999C67.7999 21.8999 67.8999 21.7999 67.9999 21.7999C67.9999 21.7999 68.1 21.7999 68.2 21.7999C68.3 21.7999 68.3 21.7999 68.4 21.7999C68.5 21.7999 68.4999 21.8999 68.5999 21.8999C68.6999 21.8999 68.6999 21.9999 68.7999 21.9999Z" fill="#0F0F0F"/>
<path d="M69.7 47.8C69.8 47.9 69.7999 48 69.7999 48.1C69.7999 48.2 69.6999 48.3 69.5999 48.4C69.4999 48.5 69.3999 48.5 69.2999 48.5H69.2C69.1 48.5 69.0999 48.4 68.9999 48.4C68.8999 48.4 68.9 48.3 68.9 48.2C68.9 48.1 68.7999 48.1 68.7999 48C68.7999 47.9 68.7999 47.9 68.7999 47.8C68.7999 47.7 68.9 47.7 68.9 47.6C69 47.6 68.9999 47.5 69.0999 47.5C69.1999 47.5 69.1999 47.5 69.2999 47.5C69.3999 47.5 69.3999 47.5 69.4999 47.5C69.5999 47.6 69.7 47.7 69.7 47.8Z" fill="#0F0F0F"/>
<path d="M68.9999 25.3C68.8999 25.2 68.7999 25.1 68.7999 25C68.7999 24.9 68.8 24.8 68.9 24.7C69 24.6 69.1 24.5 69.2 24.5C69.3 24.5 69.3999 24.5 69.4999 24.6C69.5999 24.7 69.7 24.8 69.7 24.9C69.7 25 69.6999 25.1 69.5999 25.2C69.4999 25.3 69.4999 25.4 69.2999 25.4C69.1999 25.4 69.1999 25.4 69.0999 25.4C69.2999 25.4 69.0999 25.4 68.9999 25.3Z" fill="#0F0F0F"/>
<path d="M70.5999 45C70.6999 45.1 70.7 45.2 70.7 45.3C70.7 45.4 70.5999 45.5 70.4999 45.6C70.3999 45.7 70.3 45.7 70.2 45.7H70.0999C69.9999 45.7 70 45.6 69.9 45.6C69.8 45.6 69.7999 45.5 69.7999 45.4C69.7999 45.4 69.7 45.3 69.7 45.2C69.7 45.1 69.7 45.1 69.7 45C69.7 44.9 69.7999 44.9 69.7999 44.8L69.9 44.7C70 44.7 69.9999 44.7 70.0999 44.6C70.1999 44.6 70.1999 44.6 70.2999 44.6C70.3999 44.8 70.4999 44.9 70.5999 45Z" fill="#0F0F0F"/>
<path d="M69.7 27.5999C69.7 27.4999 69.8 27.3999 69.9 27.3999C70 27.2999 70.1 27.2999 70.2 27.2999C70.3 27.2999 70.3999 27.2999 70.4999 27.3999C70.5999 27.3999 70.7 27.4999 70.7 27.5999C70.7 27.6999 70.7 27.7999 70.7 27.8999C70.7 27.9999 70.5999 28.0999 70.5999 28.1999C70.4999 28.2999 70.5 28.2999 70.4 28.2999H70.2999C70.1999 28.2999 70.0999 28.2999 69.9999 28.1999C69.8999 28.0999 69.7999 27.9999 69.7999 27.8999C69.6999 27.7999 69.7 27.6999 69.7 27.5999Z" fill="#0F0F0F"/>
<path d="M71.2 42C71.3 42.1 71.2999 42.2 71.2999 42.4C71.2999 42.5 71.1999 42.6 71.0999 42.7C70.9999 42.8 70.8999 42.8 70.7999 42.8H70.7C70.6 42.8 70.5 42.7 70.4 42.6C70.3 42.5 70.2999 42.4 70.2999 42.3C70.2999 42.2 70.3999 42.1 70.4999 42C70.5999 41.9 70.6999 41.9 70.7999 41.9C70.9999 41.9 71.1 41.9 71.2 42Z" fill="#0F0F0F"/>
<path d="M70.4999 30.2C70.5999 30.2 70.6 30.2 70.7 30.1C70.8 30.1 70.9999 30.1 71.0999 30.2C71.1999 30.3 71.2999 30.4 71.2999 30.5C71.2999 30.6 71.2999 30.6 71.2999 30.7C71.2999 30.8 71.3 30.8 71.2 30.9L71.0999 31C70.9999 31 71 31 70.9 31.1H70.7999C70.6999 31.1 70.5999 31.1 70.4999 31C70.3999 30.9 70.3999 30.8 70.2999 30.7C70.2999 30.6 70.2999 30.6 70.2999 30.5C70.2999 30.4 70.3 30.4 70.4 30.3L70.4999 30.2Z" fill="#0F0F0F"/>
<path d="M71.5999 39.2C71.5999 39.3 71.5999 39.3 71.5999 39.4C71.5999 39.5 71.4999 39.6 71.3999 39.7C71.2999 39.8 71.1999 39.8 71.0999 39.8H70.9999C70.8999 39.8 70.8999 39.8 70.7999 39.8C70.6999 39.8 70.6999 39.7 70.6999 39.7C70.6999 39.6 70.5999 39.6 70.5999 39.5C70.5999 39.4 70.5999 39.4 70.5999 39.3C70.5999 39.2 70.5999 39.2 70.5999 39.1C70.5999 39 70.6999 39 70.6999 39C70.7999 39 70.7999 38.9 70.8999 38.9C70.9999 38.9 70.9999 38.9 71.0999 38.9C71.1999 38.9 71.1999 38.9 71.2999 38.9C71.3999 38.9 71.3999 39 71.4999 39C71.5999 39.1 71.5999 39.2 71.5999 39.2Z" fill="#0F0F0F"/>
<path d="M71.2 33C71.3 33 71.3999 33 71.4999 33.1C71.5999 33.2 71.6 33.2 71.7 33.3C71.7 33.4 71.7 33.5 71.7 33.6C71.7 33.7 71.5999 33.8 71.4999 33.8C71.3999 33.9 71.3 33.9 71.2 33.9C71.1 33.9 71 33.9 70.9 33.8C70.8 33.7 70.7 33.6 70.7 33.5C70.7 33.4 70.6999 33.3 70.7999 33.2C70.8999 33.1 70.8999 33 70.9999 33C70.9999 33 71.1 33 71.2 33Z" fill="#0F0F0F"/>
<path d="M71.6999 36.1C71.7999 36.2 71.7999 36.3 71.7999 36.4C71.7999 36.5 71.7999 36.6 71.6999 36.7C71.6999 36.8 71.5999 36.8 71.4999 36.9C71.3999 37 71.2999 36.9 71.1999 36.9C71.0999 36.9 70.9999 36.8 70.9999 36.8C70.8999 36.7 70.8999 36.6 70.8999 36.6C70.8999 36.5 70.8999 36.4 70.8999 36.3C70.8999 36.2 70.9999 36.1 71.0999 36.1C71.1999 36.1 71.2999 36 71.3999 36C71.3999 35.9 71.5999 36 71.6999 36.1Z" fill="#0F0F0F"/>
<path d="M55.2999 66.4C55.2999 66.5 55.1999 66.6 55.0999 66.7C54.9999 66.7 54.8999 66.8 54.7999 66.8C54.6999 66.8 54.5999 66.8 54.5999 66.7C54.4999 66.7 54.5 66.6 54.4 66.5C54.3 66.4 54.2999 66.3 54.2999 66.1C54.2999 66 54.3999 65.9 54.4999 65.8C54.4999 65.8 54.6 65.7 54.7 65.7C54.8 65.7 54.8 65.7 54.9 65.7C55 65.7 54.9999 65.7 55.0999 65.8C55.1999 65.8 55.2 65.9 55.2 65.9C55.3 66.1 55.2999 66.3 55.2999 66.4Z" fill="white"/>
<path d="M57.7 64.7C57.7 64.8 57.6999 64.8 57.5999 64.9C57.5999 65 57.4999 65 57.4999 65C57.3999 65.1 57.3 65.1 57.2 65.1C57.1 65.1 56.9999 65.1 56.9999 65C56.8999 65 56.8999 64.9 56.7999 64.9C56.6999 64.8 56.7 64.7 56.7 64.5C56.7 64.4 56.8 64.3 56.9 64.2C57 64.2 56.9999 64.1 57.0999 64.1C57.1999 64.1 57.1999 64.1 57.2999 64.1C57.3999 64.1 57.3999 64.1 57.4999 64.2C57.5999 64.2 57.5999 64.3 57.5999 64.3C57.5999 64.3 57.7 64.4 57.7 64.5C57.7 64.5 57.7 64.6 57.7 64.7Z" fill="white"/>
<path d="M60 62.7C60 62.8 59.9 62.9 59.8 63C59.7 63.1 59.6 63.1 59.5 63.1C59.4 63.1 59.4 63.1 59.3 63C59.2 63 59.2 62.9 59.1 62.9C59 62.8 59 62.7 59 62.6C59 62.5 59.1 62.4 59.2 62.3C59.3 62.2 59.4 62.2 59.6 62.2C59.7 62.2 59.8 62.3 59.9 62.4C60 62.5 60 62.6 60 62.7Z" fill="white"/>
<path d="M71.5999 39.4C71.5999 39.5 71.4999 39.6 71.3999 39.7C71.2999 39.8 71.1999 39.8 71.0999 39.8H70.9999C70.8999 39.8 70.8999 39.8 70.7999 39.8C70.6999 39.8 70.6999 39.7 70.6999 39.7C70.6999 39.6 70.5999 39.6 70.5999 39.5C70.5999 39.4 70.5999 39.4 70.5999 39.3C70.5999 39.2 70.5999 39.2 70.5999 39.1C70.5999 39 70.6999 39 70.6999 39C70.7999 39 70.7999 38.9 70.8999 38.9C70.9999 38.9 70.9999 38.9 71.0999 38.9C71.1999 38.9 71.1999 38.9 71.2999 38.9C71.3999 38.9 71.3999 39 71.4999 39C71.4999 39 71.5999 39.1 71.5999 39.2C71.5999 39.3 71.5999 39.4 71.5999 39.4Z" fill="white"/>
<path d="M67.4 53.5C67.4 53.6 67.3999 53.6 67.2999 53.7C67.2999 53.8 67.2 53.8 67.2 53.9C67.2 53.9 67.0999 54 66.9999 54C66.8999 54 66.8999 54 66.7999 54C66.6999 54 66.6999 54 66.5999 53.9C66.4999 53.9 66.5 53.8 66.4 53.8C66.4 53.7 66.2999 53.7 66.2999 53.6C66.2999 53.5 66.2999 53.5 66.2999 53.4C66.2999 53.3 66.3 53.3 66.4 53.2C66.4 53.1 66.4999 53.1 66.4999 53.1C66.5999 53.1 66.6 53 66.7 53C66.8 53 66.8 53 66.9 53C67 53 66.9999 53 67.0999 53.1C67.1999 53.1 67.1999 53.2 67.2999 53.2C67.2999 53.2 67.4 53.3 67.4 53.4C67.4 53.5 67.4 53.5 67.4 53.5Z" fill="white"/>
<path d="M68.7 50.9C68.7 51 68.5999 51.1 68.4999 51.2C68.3999 51.3 68.3 51.3 68.2 51.3C68.1 51.3 68.0999 51.3 67.9999 51.3C67.8999 51.2 67.8 51.1 67.7 51C67.7 50.9 67.7 50.8 67.7 50.6C67.8 50.5 67.8999 50.4 67.9999 50.3C68.0999 50.3 68.3 50.3 68.4 50.3C68.5 50.3 68.5999 50.4 68.5999 50.5C68.6999 50.7 68.7 50.8 68.7 50.9Z" fill="white"/>
<path d="M70.7 45.3C70.7 45.4 70.5999 45.5 70.4999 45.6C70.3999 45.7 70.3 45.7 70.2 45.7H70.0999C69.9999 45.7 70 45.6 69.9 45.6C69.8 45.6 69.7999 45.5 69.7999 45.4C69.7999 45.4 69.7 45.3 69.7 45.2C69.7 45.1 69.7 45.1 69.7 45C69.7 44.9 69.7999 44.9 69.7999 44.8L69.9 44.7C70 44.7 69.9999 44.7 70.0999 44.6C70.1999 44.6 70.1999 44.6 70.2999 44.6C70.3999 44.6 70.4999 44.7 70.5999 44.8C70.5999 45.1 70.7 45.2 70.7 45.3Z" fill="white"/>
<path d="M65.7999 55.9C65.7999 56 65.8 56.1 65.7 56.3C65.7 56.4 65.5999 56.4 65.4999 56.5C65.3999 56.5 65.3999 56.6 65.2999 56.6C65.1999 56.6 65.0999 56.6 64.9999 56.5L64.9 56.4C64.9 56.3 64.7999 56.3 64.7999 56.2C64.7999 56.1 64.7999 56.1 64.7999 56C64.7999 55.9 64.8 55.9 64.9 55.8C64.9 55.7 64.9999 55.7 64.9999 55.7C65.0999 55.7 65.1 55.6 65.2 55.6C65.3 55.6 65.3 55.6 65.4 55.6C65.5 55.6 65.4999 55.6 65.5999 55.7C65.6999 55.7 65.7999 55.8 65.7999 55.9Z" fill="white"/>
<path d="M69.7999 48.2C69.7999 48.3 69.6999 48.4 69.5999 48.5C69.4999 48.6 69.3999 48.6 69.2999 48.6H69.2C69.1 48.6 69.0999 48.5 68.9999 48.5C68.8999 48.5 68.9 48.4 68.9 48.3C68.9 48.2 68.7999 48.2 68.7999 48.1C68.7999 48 68.7999 48 68.7999 47.9C68.7999 47.8 68.9 47.8 68.9 47.7C69 47.7 68.9999 47.6 69.0999 47.6C69.1999 47.6 69.1999 47.6 69.2999 47.6C69.3999 47.6 69.3999 47.6 69.4999 47.6C69.5999 47.6 69.6999 47.7 69.7999 47.8C69.7999 47.9 69.7999 48 69.7999 48.2Z" fill="white"/>
<path d="M71.2999 42.4C71.2999 42.5 71.1999 42.6 71.0999 42.7C70.9999 42.8 70.8999 42.8 70.7999 42.8H70.7C70.6 42.8 70.5 42.7 70.4 42.6C70.3 42.5 70.2999 42.4 70.2999 42.3C70.2999 42.2 70.3999 42.1 70.4999 42C70.5999 41.9 70.6999 41.9 70.7999 41.9C70.8999 41.9 70.9999 42 71.0999 42.1C71.2999 42.2 71.2999 42.3 71.2999 42.4Z" fill="white"/>
<path d="M64.0999 58.3C64.0999 58.4 64.0999 58.6 63.9999 58.7C63.9999 58.7 63.8999 58.8 63.7999 58.8C63.6999 58.8 63.6999 58.8 63.5999 58.8C63.4999 58.8 63.3999 58.8 63.2999 58.7C63.1999 58.6 63.0999 58.5 63.0999 58.4C63.0999 58.3 63.0999 58.1 63.1999 58C63.1999 58 63.2999 57.9 63.3999 57.9C63.4999 57.9 63.4999 57.9 63.5999 57.8C63.6999 57.8 63.6999 57.8 63.7999 57.8C63.8999 57.8 63.8999 57.8 63.9999 57.9C63.9999 58.1 63.9999 58.2 64.0999 58.3Z" fill="white"/>
<path d="M62.0999 60.6C62.0999 60.7 62.0999 60.7 62.0999 60.8C62.0999 60.9 62.0999 60.9 61.9999 61C61.8999 61.1 61.7999 61.1 61.5999 61.1C61.4999 61.1 61.3999 61.1 61.2999 61C61.2999 61 61.2 60.9 61.2 60.8C61.2 60.7 61.2 60.7 61.2 60.6C61.2 60.5 61.2 60.5 61.2 60.4C61.2 60.3 61.2999 60.3 61.2999 60.2L61.4 60.1C61.5 60.1 61.4999 60.1 61.5999 60.1C61.6999 60.1 61.6999 60.1 61.7999 60.1C61.8999 60.1 61.8999 60.2 61.9999 60.2C61.9999 60.2 62.0999 60.3 62.0999 60.4C62.0999 60.5 62.0999 60.6 62.0999 60.6Z" fill="white"/>
<path d="M39.3999 1.19993C39.3999 1.29993 39.2999 1.39993 39.2999 1.49993C39.1999 1.59993 39.0999 1.59993 38.9999 1.59993C38.8999 1.59993 38.7999 1.59993 38.6999 1.49993C38.5999 1.39993 38.5999 1.29993 38.5999 1.19993C38.5999 1.09993 38.6999 0.999927 38.6999 0.899927C38.7999 0.799927 38.8999 0.799927 38.9999 0.799927C39.0999 0.799927 39.1999 0.899927 39.2999 0.899927C39.2999 0.999927 39.3999 1.09993 39.3999 1.19993Z" fill="white"/>
<path d="M12.5999 10.5C12.5999 10.6 12.4999 10.7 12.4999 10.8C12.3999 10.9 12.3 10.9 12.2 10.9C12.1 10.9 12 10.9 11.9 10.8C11.8 10.7 11.8 10.7 11.7 10.6C11.7 10.5 11.6 10.4 11.7 10.3C11.7 10.2 11.7999 10.1 11.7999 10.1C11.8999 10 11.9999 10 12.0999 10C12.1999 10 12.3 10.1 12.4 10.2C12.5 10.2 12.5999 10.3 12.5999 10.5Z" fill="white"/>
<path d="M25 3C25 3.1 25 3.1 25 3.2C25 3.2 24.9 3.3 24.9 3.4C24.9 3.4 24.8 3.5 24.7 3.5C24.6 3.5 24.6 3.5 24.5 3.5C24.4 3.5 24.3 3.5 24.2 3.4C24.1 3.3 24.1 3.3 24 3.2C24 3.1 24 3.1 24 3C24 2.9 24 2.9 24 2.8C24 2.7 24.1 2.7 24.1 2.6C24.2 2.6 24.2 2.5 24.3 2.5C24.4 2.5 24.5 2.5 24.7 2.5C24.8 2.5 24.9 2.6 24.9 2.8C25 2.9 25 3 25 3Z" fill="white"/>
<path d="M33.5999 1.19995C33.5999 1.29995 33.5999 1.49995 33.4999 1.59995C33.3999 1.69995 33.3 1.69995 33.2 1.69995H33.0999C32.9999 1.69995 32.8999 1.59995 32.7999 1.59995C32.6999 1.49995 32.7 1.39995 32.7 1.19995C32.7 1.09995 32.8 0.999951 32.9 0.899951C33 0.799951 33.1 0.699951 33.2 0.699951C33.3 0.699951 33.3999 0.799951 33.4999 0.899951C33.4999 0.999951 33.5999 1.09995 33.5999 1.19995Z" fill="white"/>
<path d="M30.7 1.49995C30.7 1.59995 30.7 1.59995 30.7 1.69995C30.7 1.79995 30.6999 1.79995 30.5999 1.89995C30.5999 1.99995 30.4999 1.99995 30.4999 1.99995C30.3999 1.99995 30.3999 2.09995 30.2999 2.09995H30.2C30.1 2.09995 30 2.09995 29.9 1.99995C29.8 1.89995 29.8 1.79995 29.7 1.69995C29.7 1.59995 29.6999 1.49995 29.7999 1.39995C29.8999 1.29995 29.9999 1.19995 30.0999 1.19995C30.1999 1.19995 30.3999 1.19995 30.4999 1.29995C30.5999 1.29995 30.6 1.39995 30.7 1.49995Z" fill="white"/>
<path d="M27.7 2.39995C27.6 2.49995 27.5 2.59995 27.4 2.59995H27.2999C27.1999 2.59995 27.0999 2.59995 26.9999 2.49995C26.8999 2.39995 26.7999 2.29995 26.7999 2.19995C26.7999 2.09995 26.8 1.99995 26.9 1.89995C27 1.79995 27.1 1.69995 27.2 1.69995C27.3 1.69995 27.3999 1.69995 27.4999 1.79995C27.5999 1.89995 27.7 1.99995 27.7 2.09995C27.8 2.19995 27.8 2.29995 27.7 2.39995Z" fill="white"/>
<path d="M22.2999 4.29999C22.1999 4.39999 22.1999 4.49999 21.9999 4.59999C21.8999 4.59999 21.8999 4.59999 21.7999 4.59999C21.6999 4.59999 21.5999 4.59999 21.4999 4.49999C21.3999 4.49999 21.2999 4.39999 21.2999 4.29999C21.1999 4.19999 21.1999 3.99999 21.2999 3.89999C21.3999 3.79999 21.3998 3.69999 21.5998 3.59999C21.7998 3.49999 21.7999 3.59999 21.9999 3.59999C22.0999 3.59999 22.1999 3.79999 22.2999 3.89999C22.2999 3.99999 22.2999 4.09999 22.2999 4.29999Z" fill="white"/>
<path d="M14.7999 8.59998C14.7999 8.69998 14.8 8.69998 14.7 8.79998L14.5999 8.89997C14.4999 8.99997 14.3999 8.99998 14.2999 8.99998C14.1999 8.99998 14.0999 8.99997 13.9999 8.89997C13.8999 8.79997 13.8999 8.79998 13.7999 8.69998C13.7999 8.59998 13.7999 8.49997 13.7999 8.39997C13.7999 8.29997 13.8999 8.19998 13.9999 8.19998C13.9999 8.19998 14.1 8.09998 14.2 8.09998C14.3 8.09998 14.3 8.09998 14.4 8.09998C14.5 8.09998 14.4999 8.09998 14.5999 8.19998C14.6999 8.19998 14.6999 8.29998 14.7999 8.29998C14.7999 8.29998 14.9 8.39998 14.9 8.49998C14.8 8.49998 14.7999 8.59998 14.7999 8.59998Z" fill="white"/>
<path d="M1.69995 30.6C1.69995 30.7 1.59994 30.8 1.49994 30.9C1.39994 31 1.29995 31 1.19995 31H1.09991C0.999915 31 0.899927 30.9 0.799927 30.8C0.699927 30.7 0.699951 30.6 0.699951 30.4C0.699951 30.3 0.799963 30.2 0.899963 30.1C0.999963 30 1.09993 30 1.29993 30C1.39993 30 1.49991 30.1 1.59991 30.2C1.69991 30.4 1.69995 30.5 1.69995 30.6Z" fill="white"/>
<path d="M2.29993 27.6999C2.29993 27.7999 2.29993 27.7999 2.29993 27.8999C2.29993 27.9999 2.19991 28.0999 2.09991 28.1999C1.99991 28.2999 1.89993 28.2999 1.79993 28.2999H1.69995C1.59995 28.2999 1.49996 28.1999 1.39996 28.0999C1.29996 27.9999 1.29993 27.8999 1.29993 27.6999C1.29993 27.5999 1.29996 27.5999 1.39996 27.4999C1.39996 27.4999 1.49991 27.3999 1.59991 27.3999C1.59991 27.3999 1.69993 27.2999 1.79993 27.2999C1.89993 27.2999 1.89994 27.2999 1.99994 27.2999C2.09994 27.2999 2.09995 27.2999 2.19995 27.3999C2.29995 27.3999 2.29993 27.4999 2.29993 27.4999C2.19993 27.4999 2.19993 27.5999 2.29993 27.6999Z" fill="white"/>
<path d="M19.6999 5.49995C19.6999 5.59995 19.5999 5.69995 19.4999 5.79995C19.3999 5.89995 19.3999 5.89995 19.2999 5.89995C19.1999 5.89995 19.0999 5.89995 18.9999 5.79995C18.8999 5.79995 18.8999 5.69995 18.7999 5.59995C18.6999 5.49995 18.6999 5.39995 18.7999 5.19995C18.7999 5.09995 18.8999 4.99995 18.9999 4.89995C19.0999 4.79995 19.1999 4.79995 19.3999 4.89995C19.4999 4.89995 19.5999 4.99995 19.6999 5.09995C19.6999 5.19995 19.6999 5.39995 19.6999 5.49995Z" fill="white"/>
<path d="M17.2 6.80002C17.2 6.90003 17.2 6.90002 17.2 7.00002C17.2 7.10002 17.1999 7.10002 17.0999 7.20002L16.9999 7.30002C16.8999 7.40003 16.8 7.40002 16.7 7.40002C16.6 7.40002 16.4999 7.40003 16.4999 7.30002C16.3999 7.30002 16.3999 7.20002 16.2999 7.20002C16.1999 7.10002 16.2 7.00002 16.2 6.80002C16.2 6.70002 16.3 6.60002 16.4 6.50002C16.4 6.50002 16.4999 6.40002 16.5999 6.40002C16.6999 6.40002 16.6999 6.40002 16.7999 6.40002C16.8999 6.40002 16.8999 6.40002 16.9999 6.50002C17.0999 6.50002 17.0999 6.60003 17.0999 6.60003C17.0999 6.60003 17.1 6.70002 17.2 6.80002Z" fill="white"/>
<path d="M10.4999 12.5C10.4999 12.6 10.4999 12.7 10.3999 12.7C10.3999 12.8 10.2999 12.8 10.1999 12.9C10.0999 12.9 9.99988 13 9.99988 13C9.89988 13 9.79989 13 9.69989 12.9C9.59989 12.8 9.59985 12.7 9.59985 12.6C9.59985 12.5 9.59989 12.3 9.69989 12.2C9.69989 12.1 9.7999 12.1 9.8999 12.1C9.9999 12.1 10.0999 12.1 10.0999 12.1C10.1999 12.1 10.2999 12.1 10.2999 12.2C10.3999 12.2 10.3999 12.3 10.4999 12.4V12.5Z" fill="white"/>
<path d="M69.7999 25.2C69.6999 25.3 69.6999 25.4 69.4999 25.4C69.3999 25.4 69.3999 25.4 69.2999 25.4C69.1999 25.4 69.0999 25.4 68.9999 25.3C68.8999 25.2 68.7999 25.1 68.7999 25C68.7999 24.9 68.8 24.8 68.9 24.7C69 24.6 69.1 24.5 69.2 24.5C69.3 24.5 69.3999 24.5 69.4999 24.6C69.5999 24.7 69.7 24.8 69.7 24.9C69.7 25 69.8999 25.1 69.7999 25.2Z" fill="white"/>
<path d="M58.2 8.50002C58.2 8.60002 58.1999 8.70002 58.0999 8.90002C58.0999 9.00002 58 9.00002 57.9 9.00002C57.8 9.00002 57.8 9.00002 57.7 9.00002C57.6 9.00002 57.5 9.00002 57.4 8.90002C57.3 8.90002 57.2999 8.80002 57.2999 8.70002C57.2999 8.70002 57.2 8.60002 57.2 8.50002C57.2 8.40002 57.2 8.40003 57.2 8.30002C57.2 8.20002 57.2999 8.20003 57.2999 8.10003L57.4 8.00002C57.5 8.00002 57.4999 7.90002 57.5999 7.90002C57.6999 7.90002 57.6999 7.90002 57.7999 7.90002C57.8999 7.90002 57.8999 7.90002 57.9999 8.00002C58.0999 8.30002 58.1 8.40002 58.2 8.50002Z" fill="white"/>
<path d="M70.7 27.7999C70.7 27.8999 70.5999 27.9999 70.5999 28.0999C70.4999 28.1999 70.5 28.2 70.4 28.2H70.2999C70.1999 28.2 70.0999 28.1999 69.9999 28.0999C69.8999 27.9999 69.7999 27.8999 69.7999 27.7999C69.7999 27.6999 69.7999 27.6 69.7999 27.5C69.7999 27.4 69.8999 27.2999 69.9999 27.2999C70.0999 27.1999 70.1999 27.2 70.2999 27.2C70.3999 27.2 70.4999 27.1999 70.5999 27.2999C70.6999 27.2999 70.7999 27.4 70.7999 27.5C70.6999 27.6 70.7 27.6999 70.7 27.7999Z" fill="white"/>
<path d="M71.2999 30.5C71.2999 30.6 71.2999 30.6 71.2999 30.7C71.2999 30.8 71.3 30.8 71.2 30.9L71.0999 31C70.9999 31 71 31 70.9 31.1H70.7999C70.6999 31.1 70.5999 31.1 70.4999 31C70.3999 30.9 70.3999 30.8 70.2999 30.7C70.2999 30.6 70.2999 30.6 70.2999 30.5C70.2999 30.4 70.3 30.4 70.4 30.3L70.4999 30.2C70.5999 30.2 70.6 30.2 70.7 30.1C70.8 30.1 70.9999 30.1 71.0999 30.2C71.1999 30.3 71.2999 30.4 71.2999 30.5Z" fill="white"/>
<path d="M71.5999 33.5999C71.5999 33.6999 71.4999 33.7999 71.3999 33.7999C71.2999 33.8999 71.1999 33.9 71.0999 33.9C70.9999 33.9 70.8999 33.8999 70.7999 33.7999C70.6999 33.6999 70.5999 33.5999 70.5999 33.4999C70.5999 33.3999 70.5999 33.3 70.6999 33.2C70.7999 33.1 70.7999 32.9999 70.8999 32.9999C70.9999 32.9999 71.0999 32.8999 71.1999 32.9999C71.2999 32.9999 71.3999 32.9999 71.4999 33.0999C71.5999 33.1999 71.5999 33.1999 71.6999 33.2999C71.6999 33.4999 71.5999 33.5999 71.5999 33.5999Z" fill="white"/>
<path d="M45.0999 2.19998C45.0999 2.29998 44.9999 2.39998 44.8999 2.49998C44.7999 2.59998 44.6999 2.59998 44.5999 2.59998H44.4999C44.3999 2.59998 44.2999 2.49998 44.1999 2.39998C44.0999 2.29998 44.0999 2.19998 44.0999 1.99998C44.0999 1.89998 44.1999 1.79998 44.2999 1.69998C44.3999 1.59998 44.4999 1.59998 44.6999 1.59998C44.7999 1.59998 44.8999 1.69998 44.9999 1.79998C45.0999 1.99998 45.1999 2.09998 45.0999 2.19998Z" fill="white"/>
<path d="M42.2999 1.6C42.2999 1.7 42.1999 1.8 42.0999 1.9C41.9999 2 41.9 2 41.7 2C41.7 2 41.6999 2 41.5999 2C41.4999 2 41.3999 1.9 41.2999 1.8C41.1999 1.7 41.2 1.6 41.2 1.4C41.2 1.3 41.3 1.2 41.4 1.1C41.5 1 41.6 1 41.7 1C41.8 1 41.8999 1.1 41.9999 1.2C42.2999 1.4 42.2999 1.5 42.2999 1.6Z" fill="white"/>
<path d="M47.9 3.2C47.9 3.3 47.8 3.4 47.7 3.5C47.6 3.6 47.5 3.6 47.3 3.5C47.2 3.5 47.1 3.4 47 3.3C47 3.1 47 3 47 2.9C47 2.8 47.1 2.7 47.2 2.6C47.3 2.6 47.3 2.6 47.4 2.5C47.5 2.5 47.5 2.5 47.6 2.5C47.7 2.5 47.8 2.6 47.9 2.7C47.9 2.9 47.9 3.1 47.9 3.2Z" fill="white"/>
<path d="M53.2999 5.40002C53.2999 5.50002 53.2999 5.50003 53.1999 5.60003C53.1999 5.70003 53.0999 5.70002 52.9999 5.80002C52.8999 5.90003 52.7999 5.90002 52.7999 5.90002C52.6999 5.90002 52.5999 5.90003 52.5999 5.80002C52.4999 5.70002 52.3999 5.60002 52.3999 5.50002C52.3999 5.40002 52.3999 5.20003 52.3999 5.10003C52.4999 5.00003 52.5999 4.90002 52.6999 4.90002C52.7999 4.90002 52.8999 4.90002 53.0999 4.90002C53.1999 4.90002 53.1999 5.00002 53.2999 5.00002C53.2999 5.00002 53.3999 5.10002 53.3999 5.20002C53.3999 5.30002 53.2999 5.40002 53.2999 5.40002Z" fill="white"/>
<path d="M55.7999 6.9C55.7999 7 55.8 7.1 55.7 7.2C55.6 7.3 55.5 7.4 55.4 7.4C55.3 7.4 55.0999 7.4 54.9999 7.3C54.8999 7.2 54.8999 7.2 54.7999 7.1C54.7999 7 54.7999 6.9 54.7999 6.8C54.7999 6.7 54.9 6.6 54.9 6.6C55 6.5 55.0999 6.5 55.0999 6.5C55.1999 6.5 55.3 6.5 55.4 6.5C55.5 6.5 55.5999 6.6 55.5999 6.7C55.6999 6.7 55.7999 6.8 55.7999 6.9Z" fill="white"/>
<path d="M50.5999 4.29998C50.5999 4.39998 50.4999 4.49998 50.3999 4.49998C50.2999 4.49998 50.1999 4.59998 50.0999 4.59998C49.9999 4.59998 49.9999 4.59998 49.8999 4.59998C49.7999 4.59998 49.6999 4.49998 49.5999 4.29998C49.5999 4.19998 49.5999 4.09997 49.5999 3.89997C49.5999 3.69997 49.7999 3.69998 49.8999 3.59998C49.9999 3.59998 50.0999 3.59998 50.2999 3.59998C50.3999 3.69998 50.4999 3.69997 50.5999 3.89997C50.6999 3.99997 50.6999 4.19998 50.5999 4.29998Z" fill="white"/>
<path d="M3.0999 25C3.0999 25.1 2.99995 25.2 2.89995 25.3C2.79995 25.4 2.6999 25.4 2.5999 25.4C2.4999 25.4 2.49995 25.4 2.39995 25.4C2.29995 25.4 2.1999 25.3 2.0999 25.2C1.9999 25.1 1.9999 25 2.0999 24.8C2.0999 24.7 2.09994 24.7 2.19994 24.6C2.19994 24.6 2.29995 24.5 2.39995 24.5C2.39995 24.5 2.4999 24.5 2.5999 24.5C2.6999 24.5 2.69991 24.5 2.79991 24.5C2.89991 24.5 2.9999 24.6 3.0999 24.7C3.0999 24.8 3.0999 24.9 3.0999 25Z" fill="white"/>
<path d="M8.59985 14.6999C8.59985 14.7999 8.59988 14.9999 8.49988 15.0999C8.49988 15.1999 8.39987 15.1999 8.29987 15.1999C8.19987 15.1999 8.19985 15.1999 8.09985 15.1999C7.99985 15.1999 7.89987 15.1999 7.79987 15.0999C7.69987 14.9999 7.59985 14.8999 7.59985 14.7999C7.59985 14.6999 7.59989 14.5999 7.69989 14.4999C7.79989 14.3999 7.89988 14.2999 7.99988 14.2999C8.09988 14.2999 8.2999 14.2999 8.3999 14.3999C8.4999 14.3999 8.59985 14.4999 8.59985 14.6999Z" fill="white"/>
<path d="M68.7999 22.3999C68.6999 22.4999 68.6999 22.5999 68.4999 22.6999C68.3999 22.6999 68.3999 22.6999 68.2999 22.6999C68.1999 22.6999 68.0999 22.6999 67.9999 22.5999C67.8999 22.4999 67.7999 22.3999 67.7999 22.2999C67.7999 22.1999 67.7999 22.0999 67.7999 21.9999C67.7999 21.8999 67.8999 21.7999 67.9999 21.7999C67.9999 21.7999 68.1 21.7999 68.2 21.7999C68.3 21.7999 68.3 21.7999 68.4 21.7999C68.5 21.7999 68.4999 21.8999 68.5999 21.8999C68.5999 21.8999 68.7 21.9999 68.7 22.0999C68.8 22.1999 68.7999 22.2999 68.7999 22.3999Z" fill="white"/>
<path d="M67.4999 19.7C67.4999 19.8 67.3999 19.9 67.2999 20C67.1999 20 67.0999 20.1 67.0999 20.1C66.9999 20.1 66.8999 20.1 66.8999 20C66.7999 20 66.7999 19.9 66.6999 19.8C66.6999 19.7 66.5999 19.7 66.5999 19.6C66.5999 19.5 66.5999 19.5 66.5999 19.4C66.5999 19.3 66.6999 19.3 66.6999 19.2L66.7999 19.1C66.8999 19 66.9999 19 67.1999 19.1C67.2999 19.1 67.2999 19.1 67.3999 19.2C67.4999 19.2 67.4999 19.3 67.4999 19.3C67.4999 19.5 67.4999 19.6 67.4999 19.7Z" fill="white"/>
<path d="M1.29999 33.5C1.29999 33.6 1.20001 33.7 1.20001 33.8C1.10001 33.9 1.00002 33.9 0.900024 33.9C0.800024 33.9 0.699976 33.8 0.599976 33.7C0.499976 33.6 0.5 33.5 0.5 33.4C0.5 33.3 0.600012 33.2 0.700012 33.1C0.800012 33 0.9 33 1 33C1.1 33 1.19999 33.1 1.29999 33.1C1.29999 33.3 1.29999 33.4 1.29999 33.5Z" fill="white"/>
<path d="M64.2999 14.7999C64.2999 14.8999 64.1999 14.9999 64.0999 15.0999C63.9999 15.1999 63.8999 15.1999 63.7999 15.1999C63.6999 15.1999 63.5999 15.1999 63.5999 15.1999C63.4999 15.1999 63.5 15.0999 63.4 15.0999C63.3 14.9999 63.2999 14.8999 63.2999 14.6999C63.2999 14.5999 63.3999 14.4999 63.4999 14.3999C63.5999 14.2999 63.7 14.2999 63.9 14.2999C64 14.2999 64.1 14.3999 64.2 14.4999C64.3 14.4999 64.2999 14.6999 64.2999 14.7999Z" fill="white"/>
<path d="M62.4 12.5C62.4 12.6 62.3 12.7 62.3 12.8C62.2 12.9 62.1 12.9 62 12.9C61.9 12.9 61.8 12.9 61.7 12.8C61.6 12.8 61.6 12.7 61.5 12.6C61.5 12.5 61.4 12.4 61.5 12.3C61.5 12.2 61.6 12.1 61.6 12.1C61.7 12 61.8 12 61.9 12C62 12 62.1 12.1 62.2 12.2C62.4 12.3 62.4 12.4 62.4 12.5Z" fill="white"/>
<path d="M5.40002 19.7C5.40002 19.8 5.39999 19.8 5.29999 19.9C5.29999 20 5.19998 20 5.09998 20.1C4.99998 20.1 4.90002 20.2 4.90002 20.2C4.80002 20.2 4.70001 20.2 4.70001 20.1C4.60001 20 4.5 19.8999 4.5 19.7999C4.5 19.6999 4.5 19.5 4.5 19.4C4.6 19.3 4.69999 19.2 4.79999 19.2C4.89999 19.2 5.10001 19.2 5.20001 19.2C5.30001 19.2 5.30002 19.2999 5.40002 19.2999C5.40002 19.2999 5.5 19.4 5.5 19.5C5.4 19.5 5.40002 19.6 5.40002 19.7Z" fill="white"/>
<path d="M66 17C66 17.1 66 17.1 66 17.2C66 17.3 66 17.3 65.9 17.4C65.9 17.5 65.8 17.5 65.8 17.5C65.7 17.5 65.6 17.6 65.5 17.6C65.4 17.6 65.3 17.6 65.3 17.5C65.2 17.5 65.2 17.4 65.1 17.3C65 17.2 65 17.1 65 16.9C65 16.8 65.1 16.7 65.2 16.6C65.2 16.6 65.3 16.5 65.4 16.5C65.5 16.5 65.5 16.5 65.6 16.5C65.7 16.5 65.7 16.5 65.8 16.6C65.9 16.6 65.9 16.7 65.9 16.7C66 16.9 66 17 66 17Z" fill="white"/>
<path d="M6.8999 17.2C6.8999 17.3 6.89987 17.3 6.79987 17.4C6.79987 17.5 6.69985 17.5 6.59985 17.6C6.49985 17.6 6.3999 17.7 6.3999 17.7C6.2999 17.7 6.19985 17.7 6.09985 17.6C5.99985 17.6 5.99988 17.5 5.99988 17.5C5.99988 17.5 5.8999 17.3999 5.8999 17.2999C5.8999 17.1999 5.8999 17.2 5.8999 17.1C5.8999 17 5.89988 17 5.99988 16.9C5.99988 16.8 6.09985 16.7999 6.09985 16.7999C6.09985 16.7999 6.19987 16.7 6.29987 16.7C6.39987 16.7 6.39988 16.7 6.49988 16.7C6.59988 16.7 6.59989 16.6999 6.69989 16.7999C6.79989 16.7999 6.79987 16.9 6.79987 16.9C6.79987 16.9 6.8999 17 6.8999 17.1C6.8999 17.1 6.8999 17.1 6.8999 17.2Z" fill="white"/>
<path d="M4.09985 22.4C4.09985 22.5 3.9999 22.6 3.8999 22.6C3.7999 22.7 3.69985 22.7 3.59985 22.7C3.49985 22.7 3.4999 22.7 3.3999 22.7C3.2999 22.7 3.19985 22.6 3.09985 22.4C3.09985 22.3 3.09985 22.1 3.09985 22C3.19985 21.9 3.2999 21.8 3.3999 21.7C3.4999 21.6 3.69987 21.7 3.79987 21.7C3.89987 21.7 3.99985 21.8 4.09985 22C4.19985 22.2 4.19985 22.3 4.09985 22.4Z" fill="white"/>
<path d="M60.4 10.3C60.4 10.4 60.4 10.5 60.4 10.6C60.4 10.7 60.3 10.8 60.2 10.8C60.1 10.8 60 10.9 59.9 10.9C59.8 10.9 59.7 10.9 59.6 10.8C59.6 10.8 59.5 10.7 59.5 10.6C59.5 10.5 59.5 10.5 59.5 10.4C59.5 10.3 59.5 10.3 59.5 10.2C59.5 10.1 59.6 10.1 59.6 10C59.6 10 59.7 9.90002 59.8 9.90002C59.9 9.90002 59.9 9.90002 60 9.90002C60.1 9.90002 60.1 9.90002 60.2 9.90002C60.3 9.90002 60.3 9.90002 60.4 10C60.3 10.2 60.3 10.2 60.4 10.3Z" fill="white"/>
<path d="M3 47.8C3 47.9 3 47.9 3 48C3 48.1 2.90002 48.1 2.90002 48.1C2.80002 48.1 2.80001 48.2 2.70001 48.2C2.70001 48.2 2.6 48.2 2.5 48.2C2.4 48.2 2.30001 48.2 2.20001 48.1C2.10001 48 2 47.9 2 47.8C2 47.7 1.99998 47.6 2.09998 47.5C2.19998 47.4 2.30002 47.3 2.40002 47.3C2.50002 47.3 2.49998 47.3 2.59998 47.3C2.69998 47.3 2.69999 47.3 2.79999 47.3C2.89999 47.3 2.9 47.4 3 47.4C3 47.4 3.09998 47.5 3.09998 47.6C3.09998 47.7 3 47.7 3 47.8Z" fill="white"/>
<path d="M2.19995 45C2.19995 45.1 2.19991 45.1 2.09991 45.2C2.09991 45.3 1.99994 45.3 1.99994 45.3C1.89994 45.3 1.89993 45.4 1.79993 45.4H1.69995C1.59995 45.4 1.49996 45.4 1.39996 45.3C1.29996 45.2 1.29995 45.1 1.19995 45C1.19995 44.9 1.19993 44.7 1.29993 44.6C1.39993 44.5 1.49991 44.4 1.59991 44.4C1.69991 44.4 1.69993 44.4 1.79993 44.4C1.89993 44.4 1.89994 44.4 1.99994 44.5C2.09994 44.5 2.09991 44.6 2.09991 44.6C2.09991 44.6 2.19995 44.7 2.19995 44.8C2.19995 44.9 2.19995 45 2.19995 45Z" fill="white"/>
<path d="M10.2999 60.1C10.2999 60.2 10.2999 60.2 10.2999 60.3C10.2999 60.4 10.1999 60.4 10.1999 60.5C10.0999 60.6 9.9999 60.6 9.8999 60.6C9.7999 60.6 9.69985 60.6 9.59985 60.5C9.49985 60.4 9.3999 60.4 9.3999 60.3C9.3999 60.2 9.3999 60.1 9.3999 60C9.3999 59.9 9.49985 59.8 9.59985 59.8C9.69985 59.8 9.69987 59.7 9.79987 59.7C9.89987 59.7 9.89988 59.7 9.99988 59.7C10.0999 59.7 10.0999 59.7 10.1999 59.7C10.2999 59.7 10.2999 59.8 10.3999 59.8C10.3999 59.8 10.4999 59.9 10.4999 60C10.2999 60 10.2999 60 10.2999 60.1Z" fill="white"/>
<path d="M1.29993 39.4C1.29993 39.5 1.19991 39.6 1.09991 39.6C0.999915 39.7 0.899927 39.7 0.799927 39.7C0.699927 39.7 0.599939 39.6 0.499939 39.6C0.399939 39.5 0.399927 39.4 0.299927 39.3C0.299927 39.2 0.299963 39.1 0.399963 39C0.399963 38.9 0.499915 38.8 0.599915 38.8C0.699915 38.8 0.799963 38.7 0.899963 38.8C0.999963 38.8 1.09995 38.8 1.19995 38.9C1.29995 39 1.29996 39.1 1.39996 39.1C1.29996 39.2 1.29993 39.3 1.29993 39.4Z" fill="white"/>
<path d="M1.59991 42.1C1.59991 42.2 1.59994 42.4 1.49994 42.5C1.39994 42.6 1.29995 42.7 1.19995 42.7H1.09991C0.999915 42.7 0.899927 42.7 0.799927 42.6C0.699927 42.5 0.699951 42.4 0.699951 42.3C0.699951 42.2 0.699927 42.1 0.799927 42C0.899927 41.9 0.999915 41.8 1.09991 41.8C1.19991 41.8 1.19993 41.8 1.29993 41.8C1.39993 41.8 1.39994 41.8 1.49994 41.9C1.59994 41.9 1.59991 42 1.59991 42C1.59991 41.9 1.59991 42 1.59991 42.1Z" fill="white"/>
<path d="M8.3999 57.9C8.3999 58 8.39987 58 8.29987 58.1C8.29987 58.2 8.19989 58.2 8.19989 58.2C8.09989 58.3 7.9999 58.3 7.8999 58.3C7.7999 58.3 7.79989 58.3 7.69989 58.2C7.59989 58.2 7.59988 58.1 7.49988 58.1C7.39988 58 7.3999 57.9 7.3999 57.7C7.3999 57.5 7.49985 57.5 7.59985 57.4C7.59985 57.4 7.69987 57.3 7.79987 57.3C7.89987 57.3 7.89988 57.3 7.99988 57.3C8.09988 57.3 8.09989 57.3 8.19989 57.4C8.29989 57.4 8.2999 57.5 8.3999 57.5C8.4999 57.5 8.49988 57.6 8.49988 57.7C8.39988 57.8 8.3999 57.8 8.3999 57.9Z" fill="white"/>
<path d="M4 50.6C3.9 50.7 3.90001 50.8 3.70001 50.9C3.60001 50.9 3.6 50.9 3.5 50.9C3.4 50.9 3.30001 50.9 3.20001 50.8C3.10001 50.8 3.1 50.7 3 50.6C3 50.5 3 50.5 3 50.4C3 50.3 3 50.3 3 50.2C3 50.1 3.09998 50.1 3.09998 50C3.09998 50 3.19999 49.9 3.29999 49.9C3.29999 49.9 3.4 49.9 3.5 49.9C3.6 49.9 3.60001 49.9 3.70001 49.9C3.80001 49.9 3.80002 50 3.90002 50L4 50.1C4.1 50.3 4.1 50.5 4 50.6Z" fill="white"/>
<path d="M6.79993 55.4C6.79993 55.5 6.79993 55.5 6.79993 55.6C6.79993 55.7 6.79995 55.7 6.69995 55.8L6.59991 55.9C6.49991 56 6.39993 56 6.29993 56C6.19993 56 6.09994 56 5.99994 55.9C5.89994 55.8 5.89993 55.7 5.79993 55.7C5.79993 55.6 5.79993 55.5 5.79993 55.4C5.79993 55.3 5.89994 55.2 5.99994 55.2C6.09994 55.2 6.09995 55.1 6.19995 55.1C6.29995 55.1 6.29996 55.1 6.39996 55.1C6.49996 55.1 6.49991 55.1 6.59991 55.2C6.69991 55.2 6.69995 55.3 6.69995 55.3L6.79993 55.4Z" fill="white"/>
<path d="M5.29991 53.1C5.29991 53.2 5.1999 53.3 5.0999 53.4C4.9999 53.4 4.99995 53.5 4.89995 53.5C4.79995 53.5 4.69994 53.5 4.69994 53.4C4.59994 53.4 4.59993 53.3 4.49993 53.2C4.39993 53.1 4.39993 53 4.49993 52.8C4.49993 52.7 4.59994 52.6 4.69994 52.5C4.79994 52.4 4.8999 52.4 5.0999 52.5C5.1999 52.5 5.29995 52.6 5.39995 52.7C5.29995 52.9 5.29991 53 5.29991 53.1Z" fill="white"/>
<path d="M71.7999 36.4C71.7999 36.5 71.7999 36.6 71.6999 36.7C71.6999 36.8 71.5999 36.8 71.4999 36.9C71.3999 37 71.2999 36.9 71.1999 36.9C71.0999 36.9 70.9999 36.8 70.9999 36.8C70.8999 36.7 70.8999 36.6 70.8999 36.6C70.8999 36.5 70.8999 36.4 70.8999 36.3C70.8999 36.2 70.9999 36.1 71.0999 36.1C71.1999 36.1 71.2999 36 71.3999 36C71.4999 36 71.6999 36 71.7999 36.1C71.6999 36.2 71.7999 36.3 71.7999 36.4Z" fill="white"/>
<path d="M52.7 67.8C52.7 68.1 52.5 68.3 52.2 68.3C51.9 68.3 51.7 68.1 51.7 67.8C51.7 67.5 51.9 67.3 52.2 67.3C52.5 67.3 52.7 67.5 52.7 67.8Z" fill="white"/>
<path d="M1.19995 36.3C1.19995 36.4 1.19995 36.5 1.19995 36.6C1.19995 36.7 1.09994 36.8 0.999939 36.8C0.899939 36.8 0.799951 36.9 0.699951 36.9C0.599951 36.9 0.399963 36.9 0.399963 36.8C0.299963 36.7 0.199951 36.6 0.199951 36.4C0.199951 36.3 0.199927 36.2 0.299927 36.1C0.299927 36 0.399939 36 0.499939 35.9C0.599939 35.9 0.699927 35.8 0.799927 35.9C0.899927 35.9 0.999915 36 1.09991 36C1.09991 36.1 1.19995 36.2 1.19995 36.3Z" fill="white"/>
<path d="M36.5 0.999976C36.5 1.09998 36.5 1.19998 36.5 1.29998C36.5 1.39998 36.4 1.49998 36.3 1.49998C36.2 1.59998 36.1 1.59998 36 1.59998C35.9 1.59998 35.7 1.49998 35.7 1.39998C35.6 1.29998 35.5 1.19998 35.5 1.09998C35.5 0.999976 35.5 0.899976 35.6 0.799976C35.7 0.699976 35.7 0.699976 35.8 0.599976C35.9 0.599976 36 0.599976 36.1 0.599976C36.2 0.599976 36.3 0.699975 36.3 0.699975C36.4 0.799975 36.5 0.899976 36.5 0.999976Z" fill="white"/>
<path d="M12.2999 62.2C12.2999 62.3 12.1999 62.4 12.0999 62.5C11.9999 62.6 11.8999 62.6 11.7999 62.6C11.6999 62.6 11.5999 62.6 11.4999 62.5C11.3999 62.5 11.3999 62.4 11.2999 62.3C11.2999 62.2 11.2999 62.1 11.2999 62C11.2999 61.9 11.3999 61.8 11.4999 61.8C11.5999 61.7 11.6999 61.7 11.7999 61.7C11.8999 61.7 11.9999 61.8 12.0999 61.9C12.2999 61.9 12.2999 62 12.2999 62.2Z" fill="white"/>
<path d="M38.7 71.7C38.7 71.8 38.6999 71.9 38.5999 72C38.4999 72.1 38.3999 72.2 38.2999 72.2C38.1999 72.2 38.0999 72.2 37.9999 72.1C37.8999 72 37.7999 71.9 37.7999 71.8C37.7999 71.7 37.8 71.6 37.9 71.5C38 71.4 38.1 71.3 38.2 71.3C38.3 71.3 38.3999 71.3 38.4999 71.4C38.5999 71.5 38.7 71.6 38.7 71.7Z" fill="white"/>
<path d="M44.5 70.9C44.5 71 44.5 71.2 44.4 71.3C44.3 71.4 44.2 71.5 44.1 71.5C44 71.5 43.8 71.5 43.7 71.4C43.6 71.3 43.5 71.2 43.5 71.1C43.5 71 43.5 70.8 43.6 70.7C43.7 70.6 43.8 70.5 43.9 70.5C44 70.5 44.2 70.5 44.3 70.6C44.4 70.6 44.5 70.7 44.5 70.9Z" fill="white"/>
<path d="M47.2 70.4C47.1 70.5 47 70.6 46.9 70.6C46.8 70.6 46.6999 70.6 46.4999 70.6C46.3999 70.6 46.2999 70.4 46.2999 70.3C46.2999 70.2 46.2999 70.2 46.2999 70.1C46.2999 70 46.3 70 46.4 69.9C46.5 69.8 46.4999 69.8 46.4999 69.8C46.5999 69.8 46.6 69.7 46.7 69.7H46.7999C46.8999 69.7 46.9999 69.7 47.0999 69.8C47.1999 69.9 47.2999 70 47.2999 70.1C47.2999 70.1 47.3 70.3 47.2 70.4Z" fill="white"/>
<path d="M49.9999 69.3C49.8999 69.4 49.8 69.5 49.7 69.5C49.6 69.5 49.5 69.5 49.4 69.5C49.3 69.4 49.2 69.4 49.2 69.2C49.2 69.1 49.2 69 49.2 68.8C49.3 68.7 49.3 68.6 49.4 68.6H49.4999C49.5999 68.6 49.6999 68.6 49.7999 68.7C49.8999 68.8 49.9999 68.9 49.9999 69C49.9999 69.1 49.9999 69.2 49.9999 69.3Z" fill="white"/>
<path d="M18.9999 67.6C18.9999 67.7 18.8999 67.7 18.8999 67.7C18.7999 67.7 18.7999 67.8 18.6999 67.8C18.5999 67.8 18.5999 67.8 18.4999 67.8C18.3999 67.8 18.3999 67.8 18.2999 67.7C18.1999 67.6 18.0999 67.5 18.0999 67.4C18.0999 67.3 18.0999 67.1 18.1999 67C18.1999 66.9 18.2999 66.9 18.2999 66.8C18.3999 66.8 18.3999 66.7 18.4999 66.7C18.5999 66.7 18.6999 66.7 18.7999 66.8C18.8999 66.9 18.9999 67 18.9999 67.1C19.0999 67.3 19.0999 67.5 18.9999 67.6Z" fill="white"/>
<path d="M32.9 71.7C32.9 71.8 32.8 71.9 32.7 72C32.6 72.1 32.5 72.1 32.4 72.1C32.3 72.1 32.2 72 32.1 72C32 71.9 32 71.8 32 71.7C32 71.6 32 71.5 32.1 71.4C32.2 71.3 32.3 71.2 32.4 71.2H32.5C32.6 71.2 32.7 71.3 32.8 71.4C32.8 71.5 32.9 71.6 32.9 71.7Z" fill="white"/>
<path d="M35.7999 71.9C35.7999 72 35.6999 72.1 35.5999 72.2C35.4999 72.3 35.3999 72.3 35.2999 72.3C35.1999 72.3 35 72.3 34.9 72.2C34.8 72.1 34.7999 72 34.7999 71.9C34.7999 71.8 34.8 71.7 34.9 71.5C35 71.4 35.1 71.3 35.2 71.3H35.2999C35.3999 71.3 35.4999 71.4 35.5999 71.5C35.6999 71.6 35.7999 71.8 35.7999 71.9Z" fill="white"/>
<path d="M29.9999 71.2C29.9999 71.3 29.9999 71.3 29.9999 71.4C29.9999 71.5 29.8999 71.6 29.8999 71.6C29.7999 71.7 29.7999 71.7 29.6999 71.7C29.5999 71.7 29.4999 71.7 29.3999 71.7C29.2999 71.7 29.1999 71.6 29.1999 71.6C29.0999 71.5 29.0999 71.4 29.0999 71.4C29.0999 71.3 29.0999 71.2 29.0999 71.1C29.0999 71 29.1999 70.9 29.1999 70.9C29.2999 70.9 29.3999 70.8 29.3999 70.8C29.4999 70.8 29.4999 70.8 29.5999 70.8C29.6999 70.8 29.6999 70.8 29.7999 70.9C29.8999 70.9 29.8999 71 29.8999 71C29.8999 71.1 29.9999 71.1 29.9999 71.2Z" fill="white"/>
<path d="M24.2999 69.9C24.2999 70 24.1999 70.1 23.9999 70.2C23.8999 70.3 23.7999 70.3 23.5999 70.2C23.4999 70.2 23.5 70.2 23.4 70.1C23.4 70.1 23.2999 70 23.2999 69.9C23.2999 69.9 23.2999 69.8 23.2999 69.7C23.2999 69.6 23.2999 69.6 23.2999 69.5C23.2999 69.4 23.3999 69.3 23.4999 69.3C23.5999 69.2 23.7 69.2 23.7 69.2C23.8 69.2 23.9 69.2 23.9 69.2C24 69.2 24.1 69.3 24.2 69.5C24.4 69.7 24.3999 69.8 24.2999 69.9Z" fill="white"/>
<path d="M21.7 68.7C21.7 68.8 21.6999 68.9 21.5999 69C21.5999 69.1 21.5 69.1 21.4 69.2C21.3 69.2 21.1999 69.2 21.0999 69.2C20.9999 69.2 20.9 69.1 20.9 69.1C20.8 69 20.7999 68.9 20.7999 68.9C20.7999 68.8 20.7999 68.7 20.7999 68.6C20.8999 68.5 20.9999 68.4 21.0999 68.4C21.1999 68.3 21.3999 68.4 21.4999 68.4C21.5999 68.4 21.7 68.5 21.7 68.6C21.6 68.5 21.7 68.6 21.7 68.7Z" fill="white"/>
<path d="M27.2 70.6C27.2 70.7 27.2 70.7 27.2 70.8C27.2 70.9 27.1999 70.9 27.0999 71L26.9999 71.1C26.8999 71.1 26.8999 71.2 26.7999 71.2C26.6999 71.2 26.6999 71.2 26.5999 71.2C26.4999 71.2 26.3999 71.1 26.2999 71C26.1999 70.9 26.2 70.8 26.2 70.6C26.2 70.5 26.3 70.4 26.4 70.4C26.5 70.3 26.5999 70.3 26.5999 70.3C26.6999 70.3 26.6999 70.3 26.7999 70.3C26.8999 70.3 26.8999 70.3 26.9999 70.4C27.0999 70.4 27.0999 70.5 27.0999 70.5C27.0999 70.4 27.2 70.5 27.2 70.6Z" fill="white"/>
<path d="M14.1999 64.1C14.1999 64.2 14.1999 64.3 14.0999 64.4C14.0999 64.4 13.9999 64.5 13.8999 64.5C13.7999 64.5 13.7999 64.5 13.6999 64.6C13.5999 64.6 13.5999 64.6 13.4999 64.6C13.3999 64.6 13.3999 64.6 13.2999 64.5L13.1999 64.4C13.1999 64.3 13.1999 64.3 13.0999 64.2C13.0999 64.1 13.0999 64.1 13.0999 64C13.0999 63.9 13.0999 63.9 13.1999 63.8C13.2999 63.7 13.3999 63.6 13.4999 63.6C13.5999 63.6 13.6999 63.6 13.7999 63.6C13.8999 63.6 13.9999 63.7 13.9999 63.8C14.1999 63.9 14.2999 64 14.1999 64.1Z" fill="white"/>
<path d="M16.5999 65.9C16.5999 66 16.5999 66.1 16.4999 66.1C16.3999 66.2 16.3999 66.2 16.2999 66.2C16.1999 66.2 16.0999 66.2 16.0999 66.2C15.9999 66.2 16 66.2 15.9 66.1C15.8 66.1 15.8 66 15.7 65.9C15.7 65.8 15.7 65.7 15.7 65.6C15.7 65.5 15.7999 65.4 15.7999 65.4C15.8999 65.3 15.9999 65.3 16.0999 65.3C16.1999 65.3 16.2999 65.3 16.2999 65.3C16.3999 65.3 16.4999 65.4 16.4999 65.4C16.5999 65.5 16.5999 65.5 16.5999 65.6C16.5999 65.7 16.5999 65.8 16.5999 65.9Z" fill="white"/>
<path d="M41.5999 71.7C41.5999 71.8 41.4999 71.9 41.3999 71.9C41.2999 71.9 41.1999 72 41.0999 72C40.9999 72 40.8999 72 40.7999 71.9C40.6999 71.8 40.6999 71.8 40.5999 71.7C40.5999 71.6 40.5999 71.5 40.5999 71.4C40.5999 71.3 40.6999 71.2 40.7999 71.2C40.8999 71.1 40.9999 71.1 41.0999 71.1C41.1999 71.1 41.3999 71.1 41.4999 71.2C41.5999 71.3 41.6999 71.4 41.6999 71.5C41.5999 71.5 41.5999 71.6 41.5999 71.7Z" fill="white"/>
<path d="M57.3999 55C57.1999 55.2 56.7999 55.4 56.4999 55.5C56.1999 55.6 55.7999 55.5999 55.4999 55.5999C54.7999 55.4999 54.0999 55.2 53.5999 54.7C53.2999 54.5 53.0999 54.2 52.8999 53.9C52.6999 53.6 52.6999 53.2 52.5999 52.9C52.5999 52.5 52.7999 52.1 53.0999 51.7C53.1999 51.5 53.3999 51.3999 53.5999 51.2999C53.7999 51.1999 53.9999 51.2 54.1999 51.2C54.8999 51.2 55.4999 51.3 56.1999 51.4C56.4999 51.4 56.7999 51.5999 57.0999 51.7999C57.2999 51.9999 57.4999 52.2999 57.5999 52.5999C57.8999 53.6999 57.7999 54.5 57.3999 55Z" fill="white"/>
<path d="M59.4999 39.8C59.3999 39.6 59.2999 39.4 58.9999 39.3C58.7999 39.2 58.5999 39.1 58.2999 39.1C57.5999 39 57.1999 38.8 57.2999 37.9C57.2999 36.8 57.0999 35.7 56.5999 34.8C56.0999 33.8 55.3999 33 54.4999 32.4C52.4999 31.1 50.1999 30.3 47.7999 30.3C45.9999 30.1 44.2 29.9 42.4 29.6C43.3 29.1 44.0999 28.7 44.7999 28.2C47.0999 26.9 49.0999 25.2 50.7999 23.2C51.5999 22.2 52.0999 21 52.2999 19.7C52.4999 18.4 52.2999 17.1 51.6999 15.9C50.3999 13.4 48.0999 12.8 45.5999 12.9C43.6999 12.9 41.7999 13.4 39.9999 14.2C35.8999 16.2 32.0999 18.6 28.6999 21.5C27.2999 22.6 25.9 23.8 24.4 25C24.6 24 24.8 23.2 24.9 22.3C25.4 19.7 25.0999 17 23.7999 14.6C23.4999 14.1 23.1999 13.6 22.6999 13.3C22.1999 12.9 21.6999 12.7 21.1999 12.6C20.9999 12.5 20.7999 12.6 20.5999 12.6C20.3999 12.7 20.1999 12.8 20.0999 13.1C19.8999 13.3 19.9 13.5 19.9 13.8C19.9 14 19.8999 14.3 20.0999 14.5C20.2999 14.8 20.6 15.1 20.9 15.4C21.4 15.8 21.7999 16.4 22.0999 17C22.3999 17.6 22.4999 18.3 22.4999 18.9C22.6999 22.5 21.2999 25.6 19.9999 28.8C19.8999 29 19.6999 29.2 19.4999 29.4C18.2999 30.6 16.9999 31.7 15.7999 33C13.6999 35.4 11.5999 37.7 10.4999 40.8C9.99993 42.3 9.89991 43.8 10.2999 45.3C10.6999 46.8 11.4999 48.2 12.5999 49.2C12.9999 49.5 13.4999 49.7 13.9999 49.7C14.4999 49.7 15 49.5 15.4 49.1C16.1 48.4 16.5999 47.5 16.9999 46.6C21.6999 36.8 27.9999 28 35.7999 20.4C37.9999 18.1 40.8999 16.6 43.9999 16C45.7999 15.7 47.8999 17.7 47.9999 19.3C48.0999 21.6 46.9 23.1 45.4 24.4C43.2 26.3 40.6 27.9 37.9 29C36.5 29.6 35.1999 30.4 33.9999 31.3C33.3999 31.8 32.8999 32.4 32.6999 33.2C32.4999 33.9 32.3999 34.7 32.5999 35.5C32.7999 36.2 33.0999 36.7 33.6999 37.1C34.1999 37.5 34.8999 37.7 35.4999 37.7C38.9999 37.9 42.5999 38 46.0999 38.3C47.5999 38.4 49.0999 38.4 50.1999 39.7C50.1999 39.8 50.0999 39.8 49.9999 39.9C49.8999 39.9 49.7999 40 49.7999 40C42.3999 41.3 35.2999 43.5 28.4 46.5C27 47.1 25.7999 48 24.6999 49.1C22.8999 51 22.7999 53.9 25.4999 55.4C28.4999 57.1 31.5999 56.8 34.7999 56.3C40.4999 55.4 45.4999 52.8 50.2999 49.5C52.7999 47.8 54.7999 45.5 56.2999 42.9C56.6999 42.2 57.0999 41.8 57.9999 41.9C58.2999 42 58.4999 42 58.7999 41.9C58.9999 41.8 59.2999 41.7 59.4999 41.4C59.5999 41.2 59.6999 41 59.7999 40.8C59.6999 40.2 59.5999 40 59.4999 39.8ZM50.9 42.9C50.5 44.2 49.6999 45.4 48.5999 46.2C44.2999 49.7 39.4999 52.4 34.0999 53.3C33.3999 53.4 32.7999 53.4 32.0999 53.5C31.3999 53.5 30.6 53.5 29.9 53.2C29.6 53.1 29.3999 53 29.1999 52.8C28.9999 52.6 28.7999 52.4 28.6999 52.1C28.5999 51.8 28.4999 51.5 28.5999 51.3C28.5999 51 28.6999 50.7 28.7999 50.5C29.0999 49.8 29.5999 49.2 30.2999 48.8C33.3999 46.8 36.7999 45.9 40.1999 44.8C43.3999 43.8 46.6999 42.9 50.0999 42.3C50.9999 41.9 51.1 42.2 50.9 42.9Z" fill="white"/>
</svg>
