<svg width="82" height="84" viewBox="0 0 82 84" fill="none" xmlns="http://www.w3.org/2000/svg">
<path d="M63.9213 58.5095C63.1594 58.446 62.4609 58.3825 61.699 58.319C61.2546 58.2555 60.8736 58.446 60.4927 58.8905C60.1117 59.2714 59.9213 59.7159 59.9213 60.2238C59.9213 60.9857 60.3022 61.6841 61.0006 62.319C61.699 62.954 62.4609 63.3349 63.2229 63.3984C64.1752 63.4619 64.8736 63.2714 65.3816 62.7635C65.8895 62.2555 65.953 61.3032 65.5721 59.9063C65.3181 59.1444 64.7467 58.7 63.9213 58.5095Z" fill="white"/>
<path d="M67.5403 46.952C68.1752 45.9996 67.7942 44.7933 66.4609 44.6663C65.699 44.6028 65.2546 44.3489 65.318 43.333C65.3815 40.6028 64.1752 38.5711 62.08 36.9838C59.7942 35.2695 57.1276 34.825 54.4609 34.5711C52.4926 34.3806 50.5244 34.1901 48.3657 33.7457C49.3815 33.1742 50.2704 32.7298 51.0323 32.2219C53.572 30.6981 55.9212 28.9203 57.8895 26.5711C59.7307 24.3488 60.2387 20.7933 58.9053 18.2536C57.445 15.3965 54.8419 14.7615 52.0482 14.825C49.8895 14.8885 47.7307 15.3965 45.7625 16.3488C41.1276 18.5711 36.8736 21.3647 32.8736 24.6663C31.2863 25.9996 29.699 27.2695 28.0482 28.6663C28.2387 27.5235 28.4926 26.5711 28.6196 25.5552C29.1276 22.5076 28.8736 19.5235 27.4133 16.7933C26.7149 15.5869 25.7625 14.7615 24.4292 14.5076C23.8577 14.3806 23.4768 14.5711 23.1593 15.079C22.9053 15.5869 22.7149 16.0949 23.0958 16.6028C23.3498 16.9838 23.6038 17.3647 23.9847 17.6187C25.2545 18.6346 25.699 20.0314 25.7625 21.6187C26.0165 25.6822 24.4292 29.2377 22.9053 32.8568C22.7784 33.1108 22.5244 33.3012 22.2704 33.5552C20.8736 34.952 19.4133 36.2219 18.1434 37.6822C15.7942 40.3489 13.445 43.079 12.1117 46.5076C10.9053 49.6822 11.9212 54.0631 14.4609 56.0949C15.4768 56.9203 16.6831 56.8568 17.6355 55.9679C18.4609 55.206 18.9688 54.1901 19.4768 53.1742C25.0006 41.9996 31.9212 31.9679 40.8101 23.3965C43.4768 20.8568 46.5244 19.0155 50.1434 18.3806C52.1752 17.9996 54.5244 20.2854 54.6514 22.1266C54.7784 24.7298 53.3815 26.3806 51.7307 27.9044C49.1911 30.1901 46.2704 31.7139 43.2228 33.1108C41.6355 33.8092 40.1752 34.5711 38.8419 35.7139C37.445 36.9203 36.8101 38.5076 37.318 40.4123C37.7625 42.1901 39.0958 42.7616 40.6196 42.8885C44.6196 43.1425 48.6196 43.2695 52.6196 43.5235C54.2704 43.6504 55.9847 43.6504 57.318 45.0473C57.1911 45.3012 57.0006 45.3012 56.8101 45.3647C48.4926 47.0155 40.3022 49.2377 32.4926 52.7933C30.9053 53.4917 29.5085 54.4441 28.3022 55.7139C26.2704 57.8092 26.1434 61.1108 29.1276 62.8885C32.5561 64.8568 36.1117 64.4758 39.6673 63.9044C46.08 62.8885 51.8577 59.9044 57.2546 56.2219C60.1117 54.2536 62.3974 51.7774 64.0482 48.7298C64.4926 47.9044 64.9371 47.3965 65.953 47.5869C66.4609 47.5869 67.1593 47.5869 67.5403 46.952ZM57.953 48.9838C57.572 50.5711 56.4926 51.7774 55.3498 52.7298C50.3974 56.6663 45.0641 59.7139 38.8419 60.7933C38.0799 60.9203 37.3815 60.9203 36.6196 60.9838C35.7942 60.9838 34.9688 60.9838 34.2069 60.6663C32.8101 60.0949 32.3657 58.8885 32.9371 57.4917C33.318 56.6663 33.8895 56.0314 34.6514 55.5235C38.1434 53.2377 42.08 52.2219 45.8895 50.952C49.572 49.7457 53.318 48.9203 57.1276 48.0314C57.953 47.9044 58.08 48.2219 57.953 48.9838Z" fill="white"/>
<path d="M24.7465 73.1736C25.4449 71.9673 24.8099 70.9514 23.4131 70.126L21.6353 69.0466L17.7623 75.6498L19.5401 76.6657C20.8734 77.4911 22.2703 77.8085 23.0957 76.4117C23.6671 75.4593 23.3496 74.507 22.5242 73.9355C23.4131 74.253 24.175 74.0625 24.7465 73.1736ZM22.0798 75.7768C21.5719 76.6657 20.683 76.4117 19.8576 75.9038L19.1592 75.4593L20.4925 73.2371L21.1274 73.6181C21.8258 74.0625 22.6512 74.7609 22.0798 75.7768ZM21.3814 72.7927L20.8734 72.4752L22.0798 70.4435L23.0957 71.0149C23.6671 71.3323 24.175 71.9673 23.7306 72.7292C23.1592 73.6816 22.3338 73.3006 21.3814 72.7927Z" fill="white"/>
<path d="M29.0641 72.9211L27.2863 72.2861L24.6196 79.4607L25.6355 79.8417L26.8419 76.6671L27.4768 76.9211C28.0482 77.1115 28.3657 77.2385 28.4292 78.0639L28.6196 80.9845L29.7625 81.429L29.445 78.0639C29.3815 77.556 29.318 77.302 29.0006 77.1115C29.8895 77.302 30.7784 76.921 31.0958 76.0322C31.7307 74.1909 30.4609 73.429 29.0641 72.9211ZM30.0165 75.5242C29.7625 76.2226 29.0006 76.4131 28.0482 76.0957L27.1593 75.7782L27.9847 73.6195L29.0006 74.0004C29.8895 74.2544 30.2704 74.8893 30.0165 75.5242Z" fill="white"/>
<path d="M45.1911 75.0132L39.3499 75.2037V76.156L41.7626 76.0926L42.0165 82.8227L43.0959 82.7592L42.8419 76.0291L45.2546 75.9656L45.1911 75.0132Z" fill="white"/>
<path d="M50.7145 73.7464L51.4764 76.8575L47.8574 77.7464L47.159 74.5718L46.0796 74.8258L47.8574 82.3178L48.9367 82.0639L48.1113 78.6353L51.6669 77.8099L52.4923 81.2385L53.5717 80.9845L51.7939 73.4924L50.7145 73.7464Z" fill="white"/>
<path d="M35.7943 74.7612L31.3499 81.8089L32.4927 81.9993L33.5721 80.2216L37.3181 80.793L37.7626 82.8247L38.9689 83.0152L36.9372 74.9517L35.7943 74.7612ZM34.08 79.3327L36.1752 75.8406L37.0641 79.8406L34.08 79.3327Z" fill="white"/>
<path d="M62.0163 75.1433C61.7623 75.2703 61.6988 75.6512 61.8258 75.9052C61.9528 76.0957 62.1433 76.1591 62.2703 76.1591C62.3972 76.1591 62.4607 76.1591 62.5877 76.0957C62.8417 75.9052 62.9052 75.5877 62.7782 75.3338C62.6512 75.0163 62.2703 74.9528 62.0163 75.1433Z" fill="white"/>
<path d="M64.747 73.2388C64.493 73.4293 64.4296 73.7467 64.62 74.0007C64.747 74.1277 64.874 74.1912 65.0645 74.1912C65.1915 74.1912 65.3184 74.1277 65.3819 74.0642C65.6359 73.8737 65.6994 73.5562 65.5089 73.3023C65.3819 73.1118 65.001 73.0483 64.747 73.2388Z" fill="white"/>
<path d="M67.3497 71.1436C67.0957 71.3341 67.0957 71.715 67.2862 71.9055C67.4131 72.0325 67.5401 72.096 67.7306 72.096C67.8576 72.096 67.9846 72.0325 68.1116 71.969C68.3655 71.7785 68.3655 71.3976 68.1751 71.2071C67.9211 70.9531 67.5401 70.8896 67.3497 71.1436Z" fill="white"/>
<path d="M81.001 44.4758C80.6835 44.4758 80.4296 44.6663 80.4296 44.9838C80.4296 45.3012 80.62 45.5552 80.9375 45.5552C80.9375 45.5552 80.9375 45.5552 81.001 45.5552C81.255 45.5552 81.5089 45.3647 81.5724 45.0473C81.5089 44.7298 81.3185 44.4758 81.001 44.4758Z" fill="white"/>
<path d="M76.3659 60.5371C76.112 60.4101 75.731 60.4736 75.604 60.7276C75.477 60.9816 75.5405 61.299 75.7945 61.4895C75.858 61.553 75.985 61.553 76.0485 61.553C76.2389 61.553 76.4294 61.426 76.5564 61.2355C76.7469 61.0451 76.6199 60.7276 76.3659 60.5371Z" fill="white"/>
<path d="M77.8266 57.4922C77.5726 57.3652 77.1916 57.4922 77.0647 57.7462C76.9377 58.0001 77.0647 58.3176 77.3821 58.5081C77.4456 58.5081 77.5091 58.5716 77.5726 58.5716C77.7631 58.5716 78.017 58.4446 78.0805 58.2541C78.2075 58.0001 78.0805 57.6192 77.8266 57.4922Z" fill="white"/>
<path d="M79.9215 51.1422C79.6041 51.0787 79.3501 51.2692 79.2231 51.5231C79.1596 51.8406 79.3501 52.0946 79.6041 52.2216C79.6676 52.2216 79.6676 52.2216 79.7311 52.2216C79.985 52.2216 80.1755 52.0311 80.239 51.7771C80.4295 51.5231 80.239 51.2057 79.9215 51.1422Z" fill="white"/>
<path d="M74.6522 63.4594C74.3982 63.2689 74.0173 63.3324 73.8903 63.5864C73.6998 63.8403 73.7633 64.1578 74.0173 64.3483C74.0808 64.4118 74.2078 64.4118 74.3347 64.4118C74.5252 64.4118 74.7157 64.3483 74.7792 64.1578C74.9697 63.9673 74.9062 63.6499 74.6522 63.4594Z" fill="white"/>
<path d="M79.033 54.3829C78.7156 54.256 78.3981 54.4464 78.3346 54.7004C78.2076 55.0179 78.3981 55.2718 78.6521 55.3988C78.7156 55.3988 78.7791 55.3988 78.8425 55.3988C79.0965 55.3988 79.287 55.2718 79.3505 55.0179C79.4775 54.7639 79.287 54.4464 79.033 54.3829Z" fill="white"/>
<path d="M80.6199 47.8422C80.3024 47.7788 80.0484 47.9692 79.9849 48.2867C79.9215 48.6041 80.1119 48.8581 80.4294 48.9216H80.4929C80.7469 48.9216 81.0008 48.7311 81.0643 48.4772C81.1278 48.1597 80.8738 47.9057 80.6199 47.8422Z" fill="white"/>
<path d="M72.6836 66.1907C72.4296 66.0002 72.1121 66.0637 71.9216 66.2542C71.7312 66.5082 71.7947 66.8256 71.9851 67.0161C72.1121 67.0796 72.1756 67.1431 72.3026 67.1431C72.4296 67.1431 72.6201 67.0796 72.747 66.9526C72.9375 66.7621 72.9375 66.3812 72.6836 66.1907Z" fill="white"/>
<path d="M69.6995 68.7918C69.509 68.9823 69.509 69.3632 69.6995 69.5537C69.8265 69.6807 69.9535 69.6807 70.0804 69.6807C70.2074 69.6807 70.3979 69.6172 70.4614 69.4902C70.6519 69.2362 70.6519 68.9188 70.4614 68.7283C70.2709 68.5378 69.9535 68.5378 69.6995 68.7918Z" fill="white"/>
<path d="M44.239 2.25319C44.3025 2.25319 44.3025 2.25319 44.239 2.25319C44.5565 2.25319 44.8104 2.06272 44.8104 1.74526C44.8104 1.4278 44.62 1.17383 44.3025 1.17383C43.985 1.17383 43.7311 1.3643 43.7311 1.68176C43.7311 1.93573 43.9216 2.1897 44.239 2.25319Z" fill="white"/>
<path d="M13.8266 12.6677C13.9535 12.6677 14.0805 12.6042 14.2075 12.5407C14.398 12.3503 14.4615 11.9693 14.2075 11.7788C14.017 11.5884 13.6361 11.5249 13.4456 11.7788C13.1916 11.9693 13.1916 12.3503 13.4456 12.5407C13.5091 12.6042 13.6996 12.6677 13.8266 12.6677Z" fill="white"/>
<path d="M27.9216 4.28402C27.9851 4.28402 28.0486 4.28402 28.1121 4.28402C28.4295 4.15703 28.5565 3.83957 28.4295 3.5856C28.3025 3.26814 27.9851 3.14116 27.7311 3.26814C27.4137 3.39513 27.2867 3.71259 27.4137 3.96656C27.4771 4.09354 27.7311 4.28402 27.9216 4.28402Z" fill="white"/>
<path d="M37.6365 2.25319C37.7 2.25319 37.7 2.25319 37.6365 2.25319C38.0174 2.25319 38.2079 1.93573 38.2079 1.68176C38.2079 1.3643 37.8904 1.17383 37.6365 1.17383C37.319 1.17383 37.1285 1.49129 37.1285 1.74526C37.1285 1.99922 37.3825 2.25319 37.6365 2.25319Z" fill="white"/>
<path d="M34.398 2.63596H34.4615C34.779 2.57247 34.9695 2.3185 34.906 2.00104C34.8425 1.68358 34.5885 1.49311 34.2711 1.5566C33.9536 1.62009 33.7631 1.87406 33.8266 2.19152C33.8901 2.44549 34.0806 2.63596 34.398 2.63596Z" fill="white"/>
<path d="M31.1596 3.33157C31.2231 3.33157 31.2231 3.33157 31.2866 3.33157C31.604 3.26807 31.731 2.95061 31.6675 2.63315C31.604 2.31569 31.2866 2.18871 30.9691 2.2522C30.6516 2.31569 30.5246 2.63315 30.5881 2.95061C30.6516 3.14109 30.9056 3.33157 31.1596 3.33157Z" fill="white"/>
<path d="M24.8735 5.48967C24.937 5.48967 25.0005 5.48967 25.1274 5.42618C25.3814 5.2992 25.5084 4.98174 25.4449 4.72777C25.3179 4.41031 25.0005 4.34682 24.683 4.41031C24.429 4.53729 24.3021 4.85475 24.3655 5.17221C24.429 5.36269 24.683 5.48967 24.8735 5.48967Z" fill="white"/>
<path d="M16.366 10.5701C16.493 10.5701 16.62 10.5066 16.6835 10.4431C16.9374 10.2526 17.0009 9.93517 16.8104 9.6812C16.62 9.42723 16.239 9.42723 16.0485 9.61771C15.7946 9.80818 15.7311 10.1256 15.985 10.3796C16.0485 10.4431 16.1755 10.5701 16.366 10.5701Z" fill="white"/>
<path d="M1.31794 35.5862H1.38143C1.6354 35.5862 1.88937 35.3957 1.95286 35.1417C2.01635 34.8243 1.82587 34.5703 1.50841 34.5068C1.19095 34.4433 0.936985 34.6338 0.873493 34.9512C0.810001 35.2052 1.00048 35.5227 1.31794 35.5862Z" fill="white"/>
<path d="M1.95298 32.2831C2.01647 32.2831 2.01647 32.2831 2.07996 32.2831C2.33393 32.2831 2.52441 32.0926 2.65139 31.8386C2.71488 31.5212 2.52441 31.2672 2.27044 31.1402C1.95298 31.0767 1.69901 31.2672 1.57203 31.5212C1.50853 31.9656 1.63552 32.2196 1.95298 32.2831Z" fill="white"/>
<path d="M21.8894 6.89041C21.9529 6.89041 22.0799 6.89041 22.1434 6.82692C22.3974 6.69994 22.5243 6.38248 22.3974 6.06501C22.2704 5.81105 21.8894 5.68406 21.6354 5.81105C21.3815 5.93803 21.2545 6.31898 21.3815 6.57295C21.5085 6.82692 21.6989 6.89041 21.8894 6.89041Z" fill="white"/>
<path d="M19.0327 8.60342C19.1597 8.60342 19.2232 8.60342 19.3502 8.53992C19.6041 8.34945 19.6676 8.03199 19.5407 7.77802C19.3502 7.52405 19.0327 7.46056 18.7787 7.65103C18.5248 7.84151 18.4613 8.15897 18.6518 8.41294C18.7153 8.53992 18.8422 8.60342 19.0327 8.60342Z" fill="white"/>
<path d="M11.4773 15.0169C11.6043 15.0169 11.7948 14.9534 11.8583 14.8264C12.0487 14.5724 12.0487 14.255 11.8583 14.0645C11.6043 13.874 11.2868 13.874 11.0963 14.0645C10.9059 14.3185 10.9059 14.6359 11.0963 14.8264C11.2233 15.0169 11.3503 15.0169 11.4773 15.0169Z" fill="white"/>
<path d="M78.9055 29.1737C78.969 29.1737 79.0325 29.1737 79.096 29.1737C79.4134 29.0467 79.5404 28.7292 79.4134 28.4753C79.2864 28.1578 78.969 28.0308 78.715 28.1578C78.3975 28.2848 78.2706 28.5387 78.3975 28.8562C78.461 29.0467 78.715 29.1737 78.9055 29.1737Z" fill="white"/>
<path d="M65.2546 10.4474C65.3816 10.5109 65.5086 10.5744 65.572 10.5744C65.699 10.5744 65.8895 10.5109 66.0165 10.3839C66.207 10.1299 66.1435 9.81246 65.8895 9.62198C65.6355 9.43151 65.3181 9.495 65.1276 9.74897C65.0006 9.87595 65.0006 10.2569 65.2546 10.4474Z" fill="white"/>
<path d="M79.3496 31.9037C79.4131 32.1577 79.6671 32.3482 79.8576 32.3482C79.9211 32.3482 79.9845 32.3482 79.9845 32.3482C80.302 32.2847 80.429 31.9672 80.3655 31.6498C80.302 31.3323 79.9845 31.2053 79.6671 31.2688C79.4131 31.3323 79.2226 31.6498 79.3496 31.9037Z" fill="white"/>
<path d="M79.9849 35.1417C80.0484 35.3957 80.2389 35.5862 80.5564 35.5862H80.6199C80.9373 35.5227 81.1278 35.2687 81.0643 34.9512C81.0008 34.6338 80.7468 34.4433 80.4294 34.5068C80.1119 34.5703 79.9215 34.8243 79.9849 35.1417Z" fill="white"/>
<path d="M80.3666 38.3827C80.3666 38.7002 80.6205 38.8906 80.938 38.8906C80.938 38.8906 80.938 38.8906 81.0015 38.8906C81.319 38.8906 81.5094 38.5732 81.5094 38.3192C81.5094 38.0018 81.192 37.8113 80.8745 37.8113C80.6205 37.8113 80.3666 38.0652 80.3666 38.3827Z" fill="white"/>
<path d="M50.7159 3.27064C50.7794 3.27064 50.7794 3.27064 50.8429 3.27064C51.0968 3.27064 51.2873 3.08016 51.3508 2.8262C51.4143 2.50874 51.2238 2.25477 50.9699 2.12778C50.6524 2.06429 50.3984 2.25477 50.3349 2.50874C50.208 2.95318 50.3984 3.20715 50.7159 3.27064Z" fill="white"/>
<path d="M47.4771 2.63596H47.5406C47.7946 2.63596 48.0486 2.44549 48.1121 2.19152C48.1756 1.87406 47.9851 1.62009 47.6676 1.5566C47.3502 1.49311 47.0962 1.68358 47.0327 2.00104C46.9692 2.3185 47.2232 2.57247 47.4771 2.63596Z" fill="white"/>
<path d="M53.8264 4.21962C53.8899 4.21962 53.9534 4.28311 54.0169 4.28311C54.2709 4.28311 54.4614 4.15613 54.5249 3.90216C54.6518 3.5847 54.4614 3.26724 54.2074 3.20375C53.8899 3.07676 53.5725 3.26724 53.509 3.52121C53.382 3.83867 53.509 4.15613 53.8264 4.21962Z" fill="white"/>
<path d="M59.7943 6.89064C59.8578 6.95414 59.9847 6.95414 60.0482 6.95414C60.2387 6.95414 60.4292 6.82715 60.5562 6.63668C60.6832 6.38271 60.6197 6.00176 60.3022 5.87477C60.0482 5.74779 59.6673 5.81128 59.5403 6.06525C59.4133 6.38271 59.5403 6.70017 59.7943 6.89064Z" fill="white"/>
<path d="M62.5887 8.53896C62.6522 8.60245 62.7792 8.60245 62.9061 8.60245C63.0966 8.60245 63.2871 8.53896 63.3506 8.34849C63.5411 8.09452 63.4776 7.71357 63.2236 7.58658C62.9696 7.39611 62.6522 7.4596 62.4617 7.71357C62.2712 8.03103 62.3347 8.34849 62.5887 8.53896Z" fill="white"/>
<path d="M56.8742 5.43001C56.9377 5.43001 57.0012 5.4935 57.0646 5.4935C57.2551 5.4935 57.5091 5.36652 57.5726 5.17604C57.6996 4.92208 57.5726 4.54112 57.3186 4.41414C57.0646 4.28716 56.6837 4.41414 56.5567 4.7316C56.4932 4.98557 56.6202 5.30303 56.8742 5.43001Z" fill="white"/>
<path d="M3.2226 28.0954C2.90514 27.9684 2.58768 28.1588 2.52418 28.4128C2.3972 28.7303 2.58768 29.0477 2.84164 29.1112C2.90514 29.1112 2.96863 29.1112 3.03212 29.1112C3.28609 29.1112 3.47656 28.9842 3.54006 28.7303C3.66704 28.4763 3.47656 28.1588 3.2226 28.0954Z" fill="white"/>
<path d="M9.69967 16.5407C9.4457 16.3502 9.12824 16.4137 8.93776 16.6677C8.74729 16.9216 8.81078 17.2391 9.00125 17.4296C9.12824 17.4931 9.25522 17.5566 9.31872 17.5566C9.4457 17.5566 9.63617 17.4931 9.76316 17.3661C9.95364 17.1121 9.89014 16.7312 9.69967 16.5407Z" fill="white"/>
<path d="M77.5091 25.0499C77.2551 25.1769 77.1281 25.4943 77.1916 25.7483C77.2551 25.9388 77.509 26.0658 77.6995 26.0658C77.763 26.0658 77.8265 26.0658 77.89 26.0023C78.144 25.8753 78.271 25.5578 78.144 25.2404C78.0805 25.0499 77.763 24.9229 77.5091 25.0499Z" fill="white"/>
<path d="M75.9847 22.0642C75.7307 22.1912 75.6037 22.5087 75.7942 22.8262C75.9212 23.0166 76.1117 23.1436 76.3022 23.1436C76.3657 23.1436 76.4926 23.1436 76.5561 23.0801C76.8101 22.9531 76.9371 22.5722 76.7466 22.3182C76.6196 22.0008 76.2387 21.9373 75.9847 22.0642Z" fill="white"/>
<path d="M0.937502 38.8906C1.00099 38.8906 1.00099 38.8906 0.937502 38.8906C1.25496 38.8906 1.50893 38.7002 1.50893 38.3827C1.50893 38.0652 1.31845 37.8113 1.00099 37.8113C0.683534 37.8113 0.429565 38.0018 0.429565 38.3192C0.429565 38.5732 0.683534 38.8272 0.937502 38.8906Z" fill="white"/>
<path d="M72.3022 16.6033C72.0482 16.7938 71.9847 17.1112 72.1752 17.3652C72.3022 17.4922 72.4292 17.5557 72.6197 17.5557C72.7466 17.5557 72.8736 17.4922 72.9371 17.4287C73.1911 17.2382 73.1911 16.9208 73.0641 16.6668C72.8736 16.4128 72.4927 16.4128 72.3022 16.6033Z" fill="white"/>
<path d="M70.0799 14.0638C69.8259 14.2542 69.8259 14.6352 70.0799 14.8257C70.2069 14.9526 70.3338 15.0161 70.4608 15.0161C70.5878 15.0161 70.7148 14.9526 70.8418 14.8891C71.0323 14.6987 71.0958 14.3177 70.8418 14.1272C70.6513 13.8733 70.3338 13.8733 70.0799 14.0638Z" fill="white"/>
<path d="M5.95345 22.0642C5.69948 21.9372 5.31853 22.0007 5.19154 22.2547C5.06456 22.5087 5.12805 22.8896 5.38202 23.0166C5.44551 23.0801 5.5725 23.0801 5.63599 23.0801C5.82646 23.0801 6.01694 22.9531 6.14392 22.7626C6.3344 22.5087 6.20742 22.1912 5.95345 22.0642Z" fill="white"/>
<path d="M74.2704 19.2705C74.0165 19.4609 73.953 19.7784 74.1435 20.0324C74.2705 20.1594 74.3974 20.2863 74.5879 20.2863C74.7149 20.2863 74.7784 20.2863 74.9054 20.2229C75.1593 20.0324 75.2228 19.7149 75.0324 19.4609C74.8419 19.1435 74.5244 19.08 74.2704 19.2705Z" fill="white"/>
<path d="M7.73142 19.2677C7.47745 19.0773 7.15999 19.1407 6.96952 19.3947C6.77904 19.6487 6.84253 19.9661 7.0965 20.1566C7.22348 20.2201 7.28698 20.2201 7.41396 20.2201C7.60444 20.2201 7.79491 20.1566 7.8584 19.9661C8.04888 19.7757 7.98539 19.3947 7.73142 19.2677Z" fill="white"/>
<path d="M4.49286 24.9849C4.23889 24.858 3.85794 24.9849 3.79445 25.3024C3.66746 25.5564 3.79445 25.9373 4.04841 26.0643C4.11191 26.0643 4.1754 26.1278 4.30238 26.1278C4.49286 26.1278 4.74683 26.0008 4.81032 25.8103C4.87381 25.4929 4.74683 25.1119 4.49286 24.9849Z" fill="white"/>
<path d="M68.4927 11.7159C68.2387 11.5254 67.9212 11.5254 67.7307 11.7793C67.5403 12.0333 67.5403 12.3508 67.7307 12.5412C67.8577 12.6682 67.9847 12.6682 68.1117 12.6682C68.2387 12.6682 68.4292 12.6047 68.4927 12.4778C68.7466 12.2873 68.7466 11.9698 68.4927 11.7159Z" fill="white"/>
<path d="M2.77847 54.0027C2.46101 54.1297 2.33403 54.3836 2.46101 54.7011C2.52451 54.9551 2.77847 55.0821 2.96895 55.0821C3.03244 55.0821 3.09594 55.0821 3.15943 55.0821C3.47689 55.0186 3.60387 54.7011 3.47689 54.3836C3.4134 54.0027 3.09593 53.8757 2.77847 54.0027Z" fill="white"/>
<path d="M2.58788 51.2081C2.52438 50.8906 2.20692 50.7637 1.95295 50.8272C1.63549 50.8906 1.44502 51.2081 1.572 51.5256C1.63549 51.7795 1.88946 51.97 2.07994 51.97C2.14343 51.97 2.14343 51.97 2.20692 51.97C2.52438 51.843 2.65137 51.5256 2.58788 51.2081Z" fill="white"/>
<path d="M10.842 68.095C10.6515 68.2855 10.588 68.6664 10.7785 68.8569C10.9054 68.9839 11.0324 69.0474 11.2229 69.0474C11.3499 69.0474 11.4769 68.9839 11.6039 68.9204C11.8578 68.7299 11.8578 68.349 11.6673 68.1585C11.4134 67.9045 11.0959 67.9045 10.842 68.095Z" fill="white"/>
<path d="M1.06508 45.4302C1.38254 45.4302 1.57302 45.1127 1.57302 44.8588C1.57302 44.5413 1.25556 44.3508 1.00159 44.3508C0.684129 44.3508 0.493652 44.6683 0.493652 44.9223C0.493652 45.2397 0.74762 45.4302 1.06508 45.4302C1.00159 45.4302 1.00159 45.4302 1.06508 45.4302Z" fill="white"/>
<path d="M1.95286 48.0323C1.95286 48.0958 1.95286 48.0958 1.95286 48.0323C1.88937 47.7148 1.6354 47.5244 1.31794 47.5878C1.00048 47.6513 0.810001 47.9053 0.873493 48.2228C0.936985 48.4767 1.19095 48.6672 1.44492 48.6672H1.50841C1.76238 48.6672 2.01635 48.3498 1.95286 48.0323Z" fill="white"/>
<path d="M8.81 65.5554C8.55603 65.7459 8.49254 66.0634 8.68302 66.3173C8.81 66.4443 8.93698 66.5078 9.12746 66.5078C9.25445 66.5078 9.38143 66.4443 9.44492 66.3808C9.69889 66.1904 9.76238 65.8729 9.57191 65.6189C9.38143 65.4285 9.00048 65.365 8.81 65.5554Z" fill="white"/>
<path d="M3.92117 57.0444C3.60371 57.1714 3.47673 57.4889 3.60371 57.7429C3.66721 57.9333 3.92117 58.0603 4.11165 58.0603C4.17514 58.0603 4.23863 58.0603 4.30213 57.9968C4.55609 57.8698 4.68308 57.5524 4.61959 57.2984C4.55609 57.0444 4.23864 56.9175 3.92117 57.0444Z" fill="white"/>
<path d="M6.96893 62.8872C6.71497 63.0776 6.65147 63.3951 6.77846 63.6491C6.90544 63.8396 7.09592 63.903 7.2229 63.903C7.34989 63.903 7.41338 63.903 7.54036 63.8396C7.79433 63.6491 7.85782 63.3316 7.73084 63.0776C7.54036 62.7602 7.2229 62.6967 6.96893 62.8872Z" fill="white"/>
<path d="M5.31831 60.0319C5.06434 60.1589 4.93736 60.4763 5.06434 60.7938C5.19133 60.9843 5.3818 61.1112 5.57228 61.1112C5.63577 61.1112 5.76276 61.1112 5.82625 61.0477C6.08022 60.9208 6.2072 60.6033 6.08022 60.2858C5.95323 59.9684 5.57228 59.8414 5.31831 60.0319Z" fill="white"/>
<path d="M81.1281 41.1091C80.8106 41.1091 80.5566 41.3631 80.5566 41.6806C80.5566 41.998 80.8106 42.252 81.1281 42.252C81.4455 42.252 81.6995 41.998 81.6995 41.6806C81.636 41.2996 81.4455 41.1091 81.1281 41.1091Z" fill="white"/>
<path d="M59.4135 77.8748C59.7291 77.8748 59.9849 77.6189 59.9849 77.3034C59.9849 76.9878 59.7291 76.7319 59.4135 76.7319C59.0979 76.7319 58.842 76.9878 58.842 77.3034C58.842 77.6189 59.0979 77.8748 59.4135 77.8748Z" fill="white"/>
<path d="M0.873919 42.1895C1.19138 42.1895 1.44535 41.9355 1.44535 41.6181C1.44535 41.3006 1.19138 41.0466 0.873919 41.0466C0.556458 41.0466 0.30249 41.3006 0.30249 41.6181C0.30249 41.9355 0.556458 42.1895 0.873919 42.1895Z" fill="white"/>
<path d="M41.0005 2.12699C41.318 2.12699 41.5719 1.87302 41.5719 1.55556C41.5719 1.2381 41.318 0.984131 41.0005 0.984131C40.683 0.984131 40.4291 1.2381 40.4291 1.55556C40.4291 1.87302 40.683 2.12699 41.0005 2.12699Z" fill="white"/>
<path d="M13.1908 70.4429C13.0004 70.6334 12.9369 71.0143 13.1273 71.2048C13.2543 71.3318 13.3813 71.3953 13.5718 71.3953C13.6988 71.3953 13.8258 71.3318 13.9527 71.2683C14.2067 71.0778 14.2067 70.6969 14.0162 70.5064C13.7623 70.2524 13.3813 70.2524 13.1908 70.4429Z" fill="white"/>
</svg>
