<svg width="105" height="93" viewBox="0 0 105 93" fill="none" xmlns="http://www.w3.org/2000/svg">
<path d="M103.588 60.7423C104.76 58.9843 104.057 56.7576 101.596 56.5232C100.189 56.406 99.3689 55.9372 99.4861 54.0621C99.6032 49.0227 97.3765 45.2724 93.5091 42.3425C89.29 39.1782 84.3678 38.3579 79.4456 37.8891C75.8125 37.5375 72.1794 37.1859 68.1948 36.3655C70.0699 35.3108 71.7107 34.4904 73.117 33.5529C77.8048 30.7402 82.1411 27.4587 85.7741 23.1224C89.1728 19.0206 90.1104 12.4576 87.6493 7.76978C84.9538 2.49597 80.1488 1.32401 74.9921 1.44121C71.0075 1.5584 67.0228 2.49597 63.3898 4.25391C54.8345 8.35576 46.9824 13.5124 39.599 19.6066C36.6691 22.0677 33.7392 24.4116 30.6921 26.9899C31.0437 24.8804 31.5125 23.1224 31.7469 21.2473C32.6845 15.6219 32.2157 10.1137 29.5202 5.07428C28.231 2.84756 26.4731 1.32401 24.012 0.855229C22.9572 0.620838 22.254 0.972427 21.6681 1.90999C21.1993 2.84756 20.8477 3.78512 21.5509 4.72269C22.0197 5.42586 22.4884 6.12904 23.1916 6.59782C25.5355 8.47296 26.3559 11.0513 26.4731 13.9812C26.9419 21.4817 24.012 28.0447 21.1993 34.7248C20.9649 35.1936 20.4961 35.5452 20.0273 36.014C17.449 38.5923 14.7535 40.9362 12.4096 43.6317C8.07336 48.5539 3.73712 53.5933 1.27601 59.9219C-0.950714 65.7817 0.924417 73.8682 5.61225 77.6185C7.48738 79.142 9.7141 79.0248 11.472 77.3841C12.9956 75.9777 13.9331 74.1026 14.8707 72.2275C25.0667 51.601 37.8411 33.0841 54.2485 17.2626C59.1707 12.5748 64.7961 9.17613 71.4763 8.00417C75.2265 7.301 79.5628 11.52 79.7972 14.9187C80.0315 19.7237 77.4532 22.7708 74.4062 25.5835C69.7183 29.8026 64.3273 32.6153 58.7019 35.1936C55.772 36.4827 53.0765 37.8891 50.6154 39.9986C48.0371 42.2253 46.8652 45.1552 47.8027 48.6711C48.6231 51.9526 51.0842 53.0074 53.8969 53.2417C61.2802 53.7105 68.6636 53.9449 76.0469 54.4137C79.094 54.6481 82.2583 54.6481 84.7194 57.2264C84.485 57.6952 84.1334 57.6952 83.7818 57.8124C68.4292 60.8595 53.3109 64.9613 38.8958 71.5243C35.966 72.8134 33.3876 74.5714 31.1609 76.9153C27.4107 80.7827 27.1763 86.8769 32.6845 90.1584C39.013 93.7915 45.576 93.0883 52.139 92.0335C63.9757 90.1584 74.6405 84.6502 84.6022 77.8529C89.876 74.2198 94.095 69.6491 97.1421 64.0238C97.9625 62.5002 98.7829 61.5626 100.658 61.9142C101.596 61.9142 102.885 61.9142 103.588 60.7423ZM85.8913 64.4925C85.1882 67.4224 83.1958 69.6492 81.0863 71.4071C71.945 78.6732 62.1006 84.2986 50.6154 86.2909C49.2091 86.5253 47.9199 86.5253 46.5136 86.6425C44.99 86.6425 43.4665 86.6425 42.0601 86.0566C39.4818 85.0018 38.6615 82.7751 39.7162 80.1968C40.4194 78.6732 41.4742 77.5013 42.8805 76.5637C49.3263 72.3447 56.5924 70.4695 63.6242 68.1256C70.4215 65.8989 77.3361 64.3753 84.3678 62.7346C85.8913 62.5002 86.1257 63.0862 85.8913 64.4925Z" fill="white"/>
</svg>
