<svg width="23" height="23" viewBox="0 0 23 23" fill="none" xmlns="http://www.w3.org/2000/svg">
<path d="M11.3214 2.63582C14.1983 2.63582 14.5383 2.64677 15.6757 2.69885C16.3588 2.70648 17.0355 2.83213 17.6761 3.07026C18.1416 3.25021 18.5645 3.5261 18.9172 3.88018C19.27 4.23426 19.5449 4.65865 19.7242 5.12595C19.9616 5.76939 20.0872 6.44893 20.0956 7.13502C20.1475 8.27524 20.1584 8.61649 20.1584 11.504C20.1584 14.3916 20.1475 14.7342 20.0956 15.8744C20.0873 16.5601 19.9617 17.2392 19.7242 17.8822C19.5451 18.3495 19.2702 18.774 18.9174 19.1281C18.5646 19.4822 18.1417 19.7581 17.6761 19.9379C17.0355 20.176 16.3588 20.3016 15.6757 20.3092C14.5383 20.3613 14.1997 20.3723 11.3214 20.3723C8.44303 20.3723 8.10434 20.3613 6.9683 20.3092C6.28477 20.3016 5.60765 20.176 4.96658 19.9379C4.50091 19.7581 4.07804 19.4822 3.72524 19.1281C3.37244 18.774 3.09757 18.3495 2.91843 17.8822C2.68105 17.2392 2.55588 16.56 2.5484 15.8744C2.49515 14.7342 2.48565 14.393 2.48565 11.504C2.48565 8.61512 2.49652 8.27524 2.5484 7.13502C2.55599 6.44898 2.68116 5.76938 2.91843 5.12595C3.09772 4.65865 3.37263 4.23426 3.7254 3.88018C4.07818 3.5261 4.501 3.25021 4.96658 3.07026C5.60765 2.83211 6.28477 2.70646 6.9683 2.69885C8.10434 2.64677 8.4444 2.63582 11.3214 2.63582ZM11.3214 0.687012C8.39524 0.687012 8.02924 0.699352 6.87955 0.752799C5.98585 0.770569 5.1017 0.940649 4.26478 1.25576C3.54896 1.53332 2.89889 1.95811 2.35639 2.50284C1.81389 3.04758 1.39095 3.70021 1.11472 4.41878C0.800581 5.25873 0.631119 6.14619 0.6136 7.0432C0.560349 8.19712 0.548096 8.56579 0.548096 11.5013C0.548096 14.4368 0.560349 14.8069 0.6136 15.9608C0.631146 16.8578 0.800607 17.7453 1.11472 18.5852C1.39095 19.3038 1.81389 19.9564 2.35639 20.5011C2.89889 21.0459 3.54896 21.4707 4.26478 21.7482C5.10185 22.0628 5.98591 22.2328 6.87955 22.2512C8.02924 22.3046 8.39524 22.317 11.3214 22.317C14.2475 22.317 14.6148 22.3046 15.7631 22.2512C16.6572 22.233 17.5417 22.0629 18.3792 21.7482C19.0951 21.4705 19.7453 21.0457 20.288 20.501C20.8307 19.9563 21.254 19.3038 21.5307 18.5852C21.8443 17.7451 22.0138 16.8577 22.0318 15.9608C22.085 14.8069 22.096 14.4382 22.096 11.5013C22.096 8.56442 22.085 8.19575 22.0318 7.0432C22.0138 6.14625 21.8443 5.25887 21.5307 4.41878C21.254 3.70024 20.8307 3.0477 20.288 2.50299C19.7453 1.95829 19.0951 1.53346 18.3792 1.25576C17.5418 0.940496 16.6572 0.770414 15.7631 0.752799C14.6134 0.699352 14.2475 0.687012 11.3214 0.687012Z" fill="white"/>
<path d="M11.3226 5.94824C10.2284 5.94824 9.15868 6.27393 8.24883 6.88412C7.33898 7.4943 6.62978 8.36157 6.21102 9.37627C5.79226 10.391 5.68277 11.5075 5.89625 12.5847C6.10973 13.6619 6.63667 14.6514 7.41044 15.428C8.1842 16.2046 9.16998 16.7335 10.2432 16.9477C11.3165 17.162 12.4289 17.052 13.4399 16.6317C14.4508 16.2114 15.3149 15.4997 15.9229 14.5865C16.5308 13.6733 16.8554 12.5996 16.8554 11.5013C16.8554 10.0286 16.2724 8.61611 15.2348 7.5747C14.1972 6.53329 12.79 5.94824 11.3226 5.94824ZM11.3226 15.107C10.6124 15.107 9.91818 14.8957 9.32766 14.4997C8.73714 14.1037 8.27691 13.5409 8.00506 12.8823C7.73322 12.2238 7.66201 11.4992 7.80047 10.8001C7.93892 10.1009 8.28079 9.45869 8.78287 8.95457C9.28496 8.45044 9.92466 8.10706 10.6212 7.96784C11.3177 7.82861 12.0397 7.89978 12.6959 8.17237C13.3521 8.44496 13.9131 8.90673 14.3078 9.49927C14.7026 10.0918 14.9135 10.7885 14.9137 11.5013C14.9137 12.4574 14.5354 13.3743 13.862 14.0505C13.1886 14.7266 12.2752 15.1066 11.3226 15.107Z" fill="white"/>
<path d="M18.3669 5.72776C18.3669 5.98445 18.291 6.23537 18.1489 6.4488C18.0068 6.66222 17.8049 6.82856 17.5686 6.92679C17.3324 7.02502 17.0723 7.05073 16.8215 7.00065C16.5707 6.95057 16.3403 6.82697 16.1595 6.64547C15.9786 6.46396 15.8555 6.23272 15.8056 5.98096C15.7557 5.72921 15.7813 5.46826 15.8792 5.23112C15.9771 4.99397 16.1428 4.79127 16.3554 4.64867C16.568 4.50606 16.818 4.42993 17.0738 4.42993C17.4167 4.42993 17.7456 4.56667 17.9881 4.81006C18.2306 5.05345 18.3669 5.38356 18.3669 5.72776Z" fill="white"/>
</svg>
