<svg width="22" height="19" viewBox="0 0 22 19" fill="none" xmlns="http://www.w3.org/2000/svg">
<path d="M0.955322 16.102C2.84156 17.3153 5.02386 17.9846 7.2636 18.0368C9.50335 18.089 11.7143 17.5219 13.6546 16.3978C15.5948 15.2736 17.1897 13.6356 18.2648 11.6628C19.3399 9.69007 19.8539 7.45858 19.7505 5.21238C20.5918 4.60284 21.3177 3.84725 21.8941 2.98127C21.11 3.32956 20.2784 3.55821 19.4269 3.65964C20.324 3.12129 20.9952 2.2737 21.3153 1.27506C20.4711 1.77767 19.5475 2.13177 18.5844 2.32208C17.9372 1.62907 17.0802 1.16982 16.1464 1.01554C15.2126 0.861269 14.2542 1.02061 13.4199 1.46884C12.5855 1.91707 11.9219 2.62913 11.5319 3.49456C11.1419 4.36 11.0474 5.33044 11.263 6.2553C9.55471 6.16949 7.88348 5.72394 6.35796 4.94762C4.83243 4.17131 3.48666 3.08158 2.40809 1.74922C1.85917 2.69855 1.69117 3.82209 1.93823 4.89133C2.18528 5.96057 2.82882 6.89521 3.73802 7.50514C3.05546 7.48417 2.38787 7.2995 1.79096 6.96657C1.77863 7.97131 2.11597 8.94888 2.74487 9.7307C3.37376 10.5125 4.25479 11.0496 5.23596 11.2492C4.60379 11.4224 3.94043 11.4477 3.29699 11.3233C3.57095 12.1802 4.10522 12.9297 4.82485 13.4667C5.54448 14.0037 6.41345 14.3012 7.31002 14.3177C5.51088 15.7338 3.22542 16.3755 0.955322 16.102Z" fill="white"/>
</svg>
