<svg width="24" height="17" viewBox="0 0 24 17" fill="none" xmlns="http://www.w3.org/2000/svg">
<path d="M23.0904 3.00692C22.9628 2.52444 22.7111 2.0841 22.3605 1.73004C22.0099 1.37598 21.5727 1.12064 21.0928 0.989605C15.2262 0.354051 9.30851 0.354051 3.44191 0.989605C2.9623 1.12097 2.52548 1.37643 2.17515 1.73046C1.82482 2.08449 1.57321 2.52467 1.4456 3.00692C0.816311 6.64155 0.816311 10.3579 1.4456 13.9925C1.57308 14.4748 1.82463 14.915 2.17498 15.2691C2.52534 15.6231 2.96224 15.8786 3.44191 16.0098C9.3085 16.6454 15.2262 16.6454 21.0928 16.0098C21.5728 15.8789 22.01 15.6236 22.3607 15.2695C22.7113 14.9154 22.9629 14.475 23.0904 13.9925C23.7194 10.3579 23.7194 6.64157 23.0904 3.00692ZM9.9577 11.871V5.12975L15.8618 8.50107L9.9577 11.871Z" fill="white"/>
</svg>
